# MagicaVoxel @ Ephtracy

# group
o 

# material
mtllib RoadVer.vox.mtl
usemtl palette

# normals
vn -1 0 0
vn 1 0 0
vn 0 0 1
vn 0 0 -1
vn 0 -1 0
vn 0 1 0

# texcoords
vt 0.908203 0.5
vt 0.966797 0.5
vt 0.974609 0.5
vt 0.982422 0.5

# verts
v -2 0 2
v -2 0 -2
v -2 0.4 2
v -2 0.4 -2
v -1.4 0.3 2
v -1.4 0.3 0.2
v -1.4 0.3 -0.2
v -1.4 0.3 -2
v -1.4 0.4 2
v -1.4 0.4 0.2
v -1.4 0.4 -0.2
v -1.4 0.4 -2
v 1.3 0.3 2
v 1.3 0.3 -2
v 1.3 0.4 2
v 1.3 0.4 -2
v 1.9 0.3 2
v 1.9 0.3 0.2
v 1.9 0.3 -0.2
v 1.9 0.3 -2
v 1.9 0.4 2
v 1.9 0.4 0.2
v 1.9 0.4 -0.2
v 1.9 0.4 -2
v -1.9 0.3 2
v -1.9 0.3 0.2
v -1.9 0.3 -0.2
v -1.9 0.3 -2
v -1.9 0.4 2
v -1.9 0.4 0.2
v -1.9 0.4 -0.2
v -1.9 0.4 -2
v -1.3 0.3 2
v -1.3 0.3 -2
v -1.3 0.4 2
v -1.3 0.4 -2
v 1.4 0.3 2
v 1.4 0.3 0.2
v 1.4 0.3 -0.2
v 1.4 0.3 -2
v 1.4 0.4 2
v 1.4 0.4 0.2
v 1.4 0.4 -0.2
v 1.4 0.4 -2
v 2 0 2
v 2 0 -2
v 2 0.4 2
v 2 0.4 -2
v -2 0 2
v -2 0.4 2
v -1.9 0.1 2
v -1.9 0.3 2
v -1.9 0.4 2
v -1.4 0.1 2
v -1.4 0.3 2
v -1.4 0.4 2
v -1.3 0 2
v -1.3 0.3 2
v -1.3 0.4 2
v 1.3 0 2
v 1.3 0.3 2
v 1.3 0.4 2
v 1.4 0.1 2
v 1.4 0.3 2
v 1.4 0.4 2
v 1.9 0.1 2
v 1.9 0.3 2
v 1.9 0.4 2
v 2 0 2
v 2 0.4 2
v -1.9 0.3 0.2
v -1.9 0.4 0.2
v -1.4 0.3 0.2
v -1.4 0.4 0.2
v 1.4 0.3 0.2
v 1.4 0.4 0.2
v 1.9 0.3 0.2
v 1.9 0.4 0.2
v -1.9 0.3 -0.2
v -1.9 0.4 -0.2
v -1.4 0.3 -0.2
v -1.4 0.4 -0.2
v 1.4 0.3 -0.2
v 1.4 0.4 -0.2
v 1.9 0.3 -0.2
v 1.9 0.4 -0.2
v -2 0 -2
v -2 0.4 -2
v -1.9 0.1 -2
v -1.9 0.3 -2
v -1.9 0.4 -2
v -1.4 0.1 -2
v -1.4 0.3 -2
v -1.4 0.4 -2
v -1.3 0 -2
v -1.3 0.3 -2
v -1.3 0.4 -2
v 1.3 0 -2
v 1.3 0.3 -2
v 1.3 0.4 -2
v 1.4 0.1 -2
v 1.4 0.3 -2
v 1.4 0.4 -2
v 1.9 0.1 -2
v 1.9 0.3 -2
v 1.9 0.4 -2
v 2 0 -2
v 2 0.4 -2
v -2 0 2
v -1.3 0 2
v 1.3 0 2
v 2 0 2
v -2 0 -2
v -1.3 0 -2
v 1.3 0 -2
v 2 0 -2
v -1.9 0.3 2
v -1.4 0.3 2
v -1.3 0.3 2
v 1.3 0.3 2
v 1.4 0.3 2
v 1.9 0.3 2
v -1.1 0.3 1.9
v -1 0.3 1.9
v 1 0.3 1.9
v 1.1 0.3 1.9
v -1.1 0.3 1.7
v -1 0.3 1.7
v 1 0.3 1.7
v 1.1 0.3 1.7
v -1.1 0.3 1.5
v -1 0.3 1.5
v 1 0.3 1.5
v 1.1 0.3 1.5
v -1.1 0.3 1.3
v -1 0.3 1.3
v 1 0.3 1.3
v 1.1 0.3 1.3
v -1.1 0.3 1.1
v -1 0.3 1.1
v 1 0.3 1.1
v 1.1 0.3 1.1
v -1.1 0.3 0.9
v -1 0.3 0.9
v 1 0.3 0.9
v 1.1 0.3 0.9
v -1.1 0.3 0.7
v -1 0.3 0.7
v 1 0.3 0.7
v 1.1 0.3 0.7
v -1.1 0.3 0.5
v -1 0.3 0.5
v 1 0.3 0.5
v 1.1 0.3 0.5
v -1.1 0.3 0.3
v -1 0.3 0.3
v 1 0.3 0.3
v 1.1 0.3 0.3
v -1.9 0.3 0.2
v -1.4 0.3 0.2
v 1.4 0.3 0.2
v 1.9 0.3 0.2
v -1.1 0.3 0.0999999
v -1 0.3 0.0999999
v 1 0.3 0.0999999
v 1.1 0.3 0.0999999
v -1.1 0.3 -0.1
v -1 0.3 -0.1
v 1 0.3 -0.1
v 1.1 0.3 -0.1
v -1.9 0.3 -0.2
v -1.4 0.3 -0.2
v 1.4 0.3 -0.2
v 1.9 0.3 -0.2
v -1.1 0.3 -0.3
v -1 0.3 -0.3
v 1 0.3 -0.3
v 1.1 0.3 -0.3
v -1.1 0.3 -0.5
v -1 0.3 -0.5
v 1 0.3 -0.5
v 1.1 0.3 -0.5
v -1.1 0.3 -0.7
v -1 0.3 -0.7
v 1 0.3 -0.7
v 1.1 0.3 -0.7
v -1.1 0.3 -0.9
v -1 0.3 -0.9
v 1 0.3 -0.9
v 1.1 0.3 -0.9
v -1.1 0.3 -1.1
v -1 0.3 -1.1
v 1 0.3 -1.1
v 1.1 0.3 -1.1
v -1.1 0.3 -1.3
v -1 0.3 -1.3
v 1 0.3 -1.3
v 1.1 0.3 -1.3
v -1.1 0.3 -1.5
v -1 0.3 -1.5
v 1 0.3 -1.5
v 1.1 0.3 -1.5
v -1.1 0.3 -1.7
v -1 0.3 -1.7
v 1 0.3 -1.7
v 1.1 0.3 -1.7
v -1.1 0.3 -1.9
v -1 0.3 -1.9
v 1 0.3 -1.9
v 1.1 0.3 -1.9
v -1.9 0.3 -2
v -1.4 0.3 -2
v -1.3 0.3 -2
v 1.3 0.3 -2
v 1.4 0.3 -2
v 1.9 0.3 -2
v -2 0.4 2
v -1.9 0.4 2
v -1.4 0.4 2
v -1.3 0.4 2
v 1.3 0.4 2
v 1.4 0.4 2
v 1.9 0.4 2
v 2 0.4 2
v -1.9 0.4 0.2
v -1.4 0.4 0.2
v 1.4 0.4 0.2
v 1.9 0.4 0.2
v -1.9 0.4 -0.2
v -1.4 0.4 -0.2
v 1.4 0.4 -0.2
v 1.9 0.4 -0.2
v -2 0.4 -2
v -1.9 0.4 -2
v -1.4 0.4 -2
v -1.3 0.4 -2
v 1.3 0.4 -2
v 1.4 0.4 -2
v 1.9 0.4 -2
v 2 0.4 -2

# faces
f 3/3/1 2/3/1 1/3/1
f 4/3/1 2/3/1 3/3/1
f 9/3/1 6/3/1 5/3/1
f 10/3/1 6/3/1 9/3/1
f 11/3/1 8/3/1 7/3/1
f 12/3/1 8/3/1 11/3/1
f 15/3/1 14/3/1 13/3/1
f 16/3/1 14/3/1 15/3/1
f 21/3/1 18/3/1 17/3/1
f 22/3/1 18/3/1 21/3/1
f 23/3/1 20/3/1 19/3/1
f 24/3/1 20/3/1 23/3/1
f 25/3/2 26/3/2 29/3/2
f 29/3/2 26/3/2 30/3/2
f 27/3/2 28/3/2 31/3/2
f 31/3/2 28/3/2 32/3/2
f 33/3/2 34/3/2 35/3/2
f 35/3/2 34/3/2 36/3/2
f 37/3/2 38/3/2 41/3/2
f 41/3/2 38/3/2 42/3/2
f 39/3/2 40/3/2 43/3/2
f 43/3/2 40/3/2 44/3/2
f 45/3/2 46/3/2 47/3/2
f 47/3/2 46/3/2 48/3/2
f 51/3/3 50/3/3 49/3/3
f 52/3/3 50/3/3 51/3/3
f 53/3/3 50/3/3 52/3/3
f 54/3/3 51/3/3 49/3/3
f 54/1/3 52/1/3 51/1/3
f 55/1/3 52/1/3 54/1/3
f 57/3/3 54/3/3 49/3/3
f 57/3/3 56/3/3 55/3/3
f 57/3/3 55/3/3 54/3/3
f 58/3/3 56/3/3 57/3/3
f 59/3/3 56/3/3 58/3/3
f 60/4/3 58/4/3 57/4/3
f 61/4/3 58/4/3 60/4/3
f 63/3/3 61/3/3 60/3/3
f 63/3/3 62/3/3 61/3/3
f 64/3/3 62/3/3 63/3/3
f 65/3/3 62/3/3 64/3/3
f 66/3/3 63/3/3 60/3/3
f 66/1/3 64/1/3 63/1/3
f 67/1/3 64/1/3 66/1/3
f 69/3/3 66/3/3 60/3/3
f 69/3/3 68/3/3 67/3/3
f 69/3/3 67/3/3 66/3/3
f 70/3/3 68/3/3 69/3/3
f 73/3/3 72/3/3 71/3/3
f 74/3/3 72/3/3 73/3/3
f 77/3/3 76/3/3 75/3/3
f 78/3/3 76/3/3 77/3/3
f 79/3/4 80/3/4 81/3/4
f 81/3/4 80/3/4 82/3/4
f 83/3/4 84/3/4 85/3/4
f 85/3/4 84/3/4 86/3/4
f 87/3/4 88/3/4 89/3/4
f 89/3/4 88/3/4 90/3/4
f 90/3/4 88/3/4 91/3/4
f 87/3/4 89/3/4 92/3/4
f 89/1/4 90/1/4 92/1/4
f 92/1/4 90/1/4 93/1/4
f 87/3/4 92/3/4 95/3/4
f 93/3/4 94/3/4 95/3/4
f 92/3/4 93/3/4 95/3/4
f 95/3/4 94/3/4 96/3/4
f 96/3/4 94/3/4 97/3/4
f 95/4/4 96/4/4 98/4/4
f 98/4/4 96/4/4 99/4/4
f 98/3/4 99/3/4 101/3/4
f 99/3/4 100/3/4 101/3/4
f 101/3/4 100/3/4 102/3/4
f 102/3/4 100/3/4 103/3/4
f 98/3/4 101/3/4 104/3/4
f 101/1/4 102/1/4 104/1/4
f 104/1/4 102/1/4 105/1/4
f 98/3/4 104/3/4 107/3/4
f 105/3/4 106/3/4 107/3/4
f 104/3/4 105/3/4 107/3/4
f 107/3/4 106/3/4 108/3/4
f 113/3/5 110/3/5 109/3/5
f 114/4/5 111/4/5 110/4/5
f 114/3/5 110/3/5 113/3/5
f 115/3/5 112/3/5 111/3/5
f 115/4/5 111/4/5 114/4/5
f 116/3/5 112/3/5 115/3/5
f 119/4/6 120/4/6 123/4/6
f 123/4/6 120/4/6 124/4/6
f 124/4/6 120/4/6 125/4/6
f 125/4/6 120/4/6 126/4/6
f 119/4/6 123/4/6 127/4/6
f 123/2/6 124/2/6 127/2/6
f 124/4/6 125/4/6 128/4/6
f 127/2/6 124/2/6 128/2/6
f 125/2/6 126/2/6 129/2/6
f 128/4/6 125/4/6 129/4/6
f 126/4/6 120/4/6 130/4/6
f 129/2/6 126/2/6 130/2/6
f 128/4/6 129/4/6 131/4/6
f 127/4/6 128/4/6 131/4/6
f 129/4/6 130/4/6 131/4/6
f 119/4/6 127/4/6 131/4/6
f 131/4/6 130/4/6 132/4/6
f 132/4/6 130/4/6 133/4/6
f 130/4/6 120/4/6 134/4/6
f 133/4/6 130/4/6 134/4/6
f 119/4/6 131/4/6 135/4/6
f 131/2/6 132/2/6 135/2/6
f 132/4/6 133/4/6 136/4/6
f 135/2/6 132/2/6 136/2/6
f 133/2/6 134/2/6 137/2/6
f 136/4/6 133/4/6 137/4/6
f 134/4/6 120/4/6 138/4/6
f 137/2/6 134/2/6 138/2/6
f 119/4/6 135/4/6 139/4/6
f 136/4/6 137/4/6 139/4/6
f 137/4/6 138/4/6 139/4/6
f 135/4/6 136/4/6 139/4/6
f 139/4/6 138/4/6 140/4/6
f 140/4/6 138/4/6 141/4/6
f 138/4/6 120/4/6 142/4/6
f 141/4/6 138/4/6 142/4/6
f 119/4/6 139/4/6 143/4/6
f 139/2/6 140/2/6 143/2/6
f 140/4/6 141/4/6 144/4/6
f 143/2/6 140/2/6 144/2/6
f 141/2/6 142/2/6 145/2/6
f 144/4/6 141/4/6 145/4/6
f 142/4/6 120/4/6 146/4/6
f 145/2/6 142/2/6 146/2/6
f 119/4/6 143/4/6 147/4/6
f 144/4/6 145/4/6 147/4/6
f 145/4/6 146/4/6 147/4/6
f 143/4/6 144/4/6 147/4/6
f 147/4/6 146/4/6 148/4/6
f 148/4/6 146/4/6 149/4/6
f 146/4/6 120/4/6 150/4/6
f 149/4/6 146/4/6 150/4/6
f 119/4/6 147/4/6 151/4/6
f 147/2/6 148/2/6 151/2/6
f 148/4/6 149/4/6 152/4/6
f 151/2/6 148/2/6 152/2/6
f 149/2/6 150/2/6 153/2/6
f 152/4/6 149/4/6 153/4/6
f 150/4/6 120/4/6 154/4/6
f 153/2/6 150/2/6 154/2/6
f 119/4/6 151/4/6 155/4/6
f 152/4/6 153/4/6 155/4/6
f 153/4/6 154/4/6 155/4/6
f 151/4/6 152/4/6 155/4/6
f 155/4/6 154/4/6 156/4/6
f 156/4/6 154/4/6 157/4/6
f 154/4/6 120/4/6 158/4/6
f 157/4/6 154/4/6 158/4/6
f 117/1/6 118/1/6 159/1/6
f 159/1/6 118/1/6 160/1/6
f 121/1/6 122/1/6 161/1/6
f 161/1/6 122/1/6 162/1/6
f 119/4/6 155/4/6 163/4/6
f 155/2/6 156/2/6 163/2/6
f 156/4/6 157/4/6 164/4/6
f 163/2/6 156/2/6 164/2/6
f 157/2/6 158/2/6 165/2/6
f 164/4/6 157/4/6 165/4/6
f 158/4/6 120/4/6 166/4/6
f 165/2/6 158/2/6 166/2/6
f 164/4/6 165/4/6 167/4/6
f 119/4/6 163/4/6 167/4/6
f 165/4/6 166/4/6 167/4/6
f 163/4/6 164/4/6 167/4/6
f 167/4/6 166/4/6 168/4/6
f 168/4/6 166/4/6 169/4/6
f 166/4/6 120/4/6 170/4/6
f 169/4/6 166/4/6 170/4/6
f 119/4/6 167/4/6 175/4/6
f 167/2/6 168/2/6 175/2/6
f 168/4/6 169/4/6 176/4/6
f 175/2/6 168/2/6 176/2/6
f 169/2/6 170/2/6 177/2/6
f 176/4/6 169/4/6 177/4/6
f 170/4/6 120/4/6 178/4/6
f 177/2/6 170/2/6 178/2/6
f 119/4/6 175/4/6 179/4/6
f 175/4/6 176/4/6 179/4/6
f 177/4/6 178/4/6 179/4/6
f 176/4/6 177/4/6 179/4/6
f 179/4/6 178/4/6 180/4/6
f 180/4/6 178/4/6 181/4/6
f 178/4/6 120/4/6 182/4/6
f 181/4/6 178/4/6 182/4/6
f 119/4/6 179/4/6 183/4/6
f 179/2/6 180/2/6 183/2/6
f 180/4/6 181/4/6 184/4/6
f 183/2/6 180/2/6 184/2/6
f 181/2/6 182/2/6 185/2/6
f 184/4/6 181/4/6 185/4/6
f 182/4/6 120/4/6 186/4/6
f 185/2/6 182/2/6 186/2/6
f 119/4/6 183/4/6 187/4/6
f 184/4/6 185/4/6 187/4/6
f 185/4/6 186/4/6 187/4/6
f 183/4/6 184/4/6 187/4/6
f 187/4/6 186/4/6 188/4/6
f 188/4/6 186/4/6 189/4/6
f 186/4/6 120/4/6 190/4/6
f 189/4/6 186/4/6 190/4/6
f 119/4/6 187/4/6 191/4/6
f 187/2/6 188/2/6 191/2/6
f 188/4/6 189/4/6 192/4/6
f 191/2/6 188/2/6 192/2/6
f 189/2/6 190/2/6 193/2/6
f 192/4/6 189/4/6 193/4/6
f 190/4/6 120/4/6 194/4/6
f 193/2/6 190/2/6 194/2/6
f 119/4/6 191/4/6 195/4/6
f 192/4/6 193/4/6 195/4/6
f 193/4/6 194/4/6 195/4/6
f 191/4/6 192/4/6 195/4/6
f 195/4/6 194/4/6 196/4/6
f 196/4/6 194/4/6 197/4/6
f 194/4/6 120/4/6 198/4/6
f 197/4/6 194/4/6 198/4/6
f 119/4/6 195/4/6 199/4/6
f 195/2/6 196/2/6 199/2/6
f 196/4/6 197/4/6 200/4/6
f 199/2/6 196/2/6 200/2/6
f 197/2/6 198/2/6 201/2/6
f 200/4/6 197/4/6 201/4/6
f 198/4/6 120/4/6 202/4/6
f 201/2/6 198/2/6 202/2/6
f 119/4/6 199/4/6 203/4/6
f 200/4/6 201/4/6 203/4/6
f 201/4/6 202/4/6 203/4/6
f 199/4/6 200/4/6 203/4/6
f 203/4/6 202/4/6 204/4/6
f 204/4/6 202/4/6 205/4/6
f 202/4/6 120/4/6 206/4/6
f 205/4/6 202/4/6 206/4/6
f 119/4/6 203/4/6 207/4/6
f 203/2/6 204/2/6 207/2/6
f 204/4/6 205/4/6 208/4/6
f 207/2/6 204/2/6 208/2/6
f 205/2/6 206/2/6 209/2/6
f 208/4/6 205/4/6 209/4/6
f 206/4/6 120/4/6 210/4/6
f 209/2/6 206/2/6 210/2/6
f 171/1/6 172/1/6 211/1/6
f 211/1/6 172/1/6 212/1/6
f 119/4/6 207/4/6 213/4/6
f 208/4/6 209/4/6 213/4/6
f 207/4/6 208/4/6 213/4/6
f 209/4/6 210/4/6 213/4/6
f 210/4/6 120/4/6 214/4/6
f 213/4/6 210/4/6 214/4/6
f 173/1/6 174/1/6 215/1/6
f 215/1/6 174/1/6 216/1/6
f 217/3/6 218/3/6 225/3/6
f 219/3/6 220/3/6 226/3/6
f 221/3/6 222/3/6 227/3/6
f 223/3/6 224/3/6 228/3/6
f 217/3/6 225/3/6 229/3/6
f 225/3/6 226/3/6 229/3/6
f 226/3/6 220/3/6 230/3/6
f 229/3/6 226/3/6 230/3/6
f 221/3/6 227/3/6 231/3/6
f 227/3/6 228/3/6 231/3/6
f 228/3/6 224/3/6 232/3/6
f 231/3/6 228/3/6 232/3/6
f 217/3/6 229/3/6 233/3/6
f 233/3/6 229/3/6 234/3/6
f 230/3/6 220/3/6 235/3/6
f 235/3/6 220/3/6 236/3/6
f 221/3/6 231/3/6 237/3/6
f 237/3/6 231/3/6 238/3/6
f 232/3/6 224/3/6 239/3/6
f 239/3/6 224/3/6 240/3/6
