# MagicaVoxel @ Ephtracy

# group
o 

# material
mtllib DE1.vox.mtl
usemtl palette

# normals
vn -1 0 0
vn 1 0 0
vn 0 0 1
vn 0 0 -1
vn 0 -1 0
vn 0 1 0

# texcoords
vt 0.908203 0.5
vt 0.974609 0.5
vt 0.978516 0.5

# verts
v -2 0 2
v -2 0 -2
v -2 0.4 2
v -2 0.4 -2
v 1.8 0.3 1.1
v 1.8 0.3 -1.1
v 1.8 0.4 1.1
v 1.8 0.4 -1.1
v -1.1 0.3 1.1
v -1.1 0.3 -1.1
v -1.1 0.4 1.1
v -1.1 0.4 -1.1
v 2 0 2
v 2 0 -2
v 2 0.3 1.8
v 2 0.3 1.3
v 2 0.3 -1.3
v 2 0.3 -1.8
v 2 0.4 2
v 2 0.4 1.8
v 2 0.4 1.3
v 2 0.4 -1.3
v 2 0.4 -1.8
v 2 0.4 -2
v -2 0 2
v -2 0.4 2
v 2 0 2
v 2 0.4 2
v -1.1 0.3 -1.1
v -1.1 0.4 -1.1
v 1.8 0.3 -1.1
v 1.8 0.4 -1.1
v -1.1 0.3 1.1
v -1.1 0.4 1.1
v 1.8 0.3 1.1
v 1.8 0.4 1.1
v -2 0 -2
v -2 0.4 -2
v 2 0 -2
v 2 0.4 -2
v -2 0 2
v 2 0 2
v -2 0 -2
v 2 0 -2
v -1.1 0.3 1.1
v 1.8 0.3 1.1
v -1.1 0.3 -1.1
v 1.8 0.3 -1.1
v -2 0.4 2
v 2 0.4 2
v -1.8 0.4 1.8
v 2 0.4 1.8
v -1.3 0.4 1.3
v 2 0.4 1.3
v -1.1 0.4 1.1
v 1.8 0.4 1.1
v -1.1 0.4 -1.1
v 1.8 0.4 -1.1
v -1.3 0.4 -1.3
v 2 0.4 -1.3
v -1.8 0.4 -1.8
v 2 0.4 -1.8
v -2 0.4 -2
v 2 0.4 -2

# faces
f 3/2/1 2/2/1 1/2/1
f 4/2/1 2/2/1 3/2/1
f 7/2/1 6/2/1 5/2/1
f 8/2/1 6/2/1 7/2/1
f 9/2/2 10/2/2 11/2/2
f 11/2/2 10/2/2 12/2/2
f 13/2/2 14/2/2 15/2/2
f 15/2/2 14/2/2 16/2/2
f 16/2/2 14/2/2 17/2/2
f 17/2/2 14/2/2 18/2/2
f 13/2/2 15/2/2 19/2/2
f 15/3/2 16/3/2 20/3/2
f 19/2/2 15/2/2 20/2/2
f 16/2/2 17/2/2 21/2/2
f 20/3/2 16/3/2 21/3/2
f 17/3/2 18/3/2 22/3/2
f 21/2/2 17/2/2 22/2/2
f 18/2/2 14/2/2 23/2/2
f 22/3/2 18/3/2 23/3/2
f 23/2/2 14/2/2 24/2/2
f 27/2/3 26/2/3 25/2/3
f 28/2/3 26/2/3 27/2/3
f 31/2/3 30/2/3 29/2/3
f 32/2/3 30/2/3 31/2/3
f 33/2/4 34/2/4 35/2/4
f 35/2/4 34/2/4 36/2/4
f 37/2/4 38/2/4 39/2/4
f 39/2/4 38/2/4 40/2/4
f 43/2/5 42/2/5 41/2/5
f 44/2/5 42/2/5 43/2/5
f 45/1/6 46/1/6 47/1/6
f 47/1/6 46/1/6 48/1/6
f 49/2/6 50/2/6 51/2/6
f 51/2/6 50/2/6 52/2/6
f 51/3/6 52/3/6 53/3/6
f 53/3/6 52/3/6 54/3/6
f 53/2/6 54/2/6 55/2/6
f 55/2/6 54/2/6 56/2/6
f 53/2/6 55/2/6 57/2/6
f 56/2/6 54/2/6 58/2/6
f 51/3/6 53/3/6 59/3/6
f 57/2/6 58/2/6 59/2/6
f 53/2/6 57/2/6 59/2/6
f 58/2/6 54/2/6 60/2/6
f 59/2/6 58/2/6 60/2/6
f 49/2/6 51/2/6 61/2/6
f 51/3/6 59/3/6 61/3/6
f 59/3/6 60/3/6 61/3/6
f 61/3/6 60/3/6 62/3/6
f 49/2/6 61/2/6 63/2/6
f 61/2/6 62/2/6 63/2/6
f 63/2/6 62/2/6 64/2/6
