# MagicaVoxel @ Ephtracy

# group
o 

# material
mtllib RoadL2.vox.mtl
usemtl palette

# normals
vn -1 0 0
vn 1 0 0
vn 0 0 1
vn 0 0 -1
vn 0 -1 0
vn 0 1 0

# texcoords
vt 0.908203 0.5
vt 0.966797 0.5
vt 0.974609 0.5
vt 0.982422 0.5

# verts
v -2 0 2
v -2 0 -2
v -2 0.4 2
v -2 0.4 -2
v -1.4 0.3 1.4
v -1.4 0.3 0.2
v -1.4 0.3 -0.2
v -1.4 0.3 -2
v -1.4 0.4 1.4
v -1.4 0.4 0.2
v -1.4 0.4 -0.2
v -1.4 0.4 -2
v -0.2 0.3 1.9
v -0.2 0.3 1.4
v -0.2 0.4 1.9
v -0.2 0.4 1.4
v 1.3 0.3 -1.3
v 1.3 0.3 -2
v 1.3 0.4 -1.3
v 1.3 0.4 -2
v 1.9 0.3 -1.9
v 1.9 0.3 -2
v 1.9 0.4 -1.9
v 1.9 0.4 -2
v -1.9 0.3 1.9
v -1.9 0.3 0.2
v -1.9 0.3 -0.2
v -1.9 0.3 -2
v -1.9 0.4 1.9
v -1.9 0.4 0.2
v -1.9 0.4 -0.2
v -1.9 0.4 -2
v -1.3 0.3 1.3
v -1.3 0.3 -2
v -1.3 0.4 1.3
v -1.3 0.4 -2
v 0.2 0.3 1.9
v 0.2 0.3 1.4
v 0.2 0.4 1.9
v 0.2 0.4 1.4
v 1.4 0.3 -1.4
v 1.4 0.3 -2
v 1.4 0.4 -1.4
v 1.4 0.4 -2
v 2 0 2
v 2 0 1.3
v 2 0 -1.3
v 2 0 -2
v 2 0.1 1.9
v 2 0.1 1.4
v 2 0.1 -1.4
v 2 0.1 -1.9
v 2 0.3 1.9
v 2 0.3 1.4
v 2 0.3 1.3
v 2 0.3 -1.3
v 2 0.3 -1.4
v 2 0.3 -1.9
v 2 0.4 2
v 2 0.4 1.9
v 2 0.4 1.4
v 2 0.4 1.3
v 2 0.4 -1.3
v 2 0.4 -1.4
v 2 0.4 -1.9
v 2 0.4 -2
v -2 0 2
v -2 0.4 2
v 2 0 2
v 2 0.4 2
v -1.4 0.3 1.4
v -1.4 0.4 1.4
v -0.2 0.3 1.4
v -0.2 0.4 1.4
v 0.2 0.3 1.4
v 0.2 0.4 1.4
v 2 0.3 1.4
v 2 0.4 1.4
v -1.9 0.3 0.2
v -1.9 0.4 0.2
v -1.4 0.3 0.2
v -1.4 0.4 0.2
v 1.3 0.3 -1.3
v 1.3 0.4 -1.3
v 2 0.3 -1.3
v 2 0.4 -1.3
v 1.9 0.3 -1.9
v 1.9 0.4 -1.9
v 2 0.3 -1.9
v 2 0.4 -1.9
v -1.9 0.3 1.9
v -1.9 0.4 1.9
v -0.2 0.3 1.9
v -0.2 0.4 1.9
v 0.2 0.3 1.9
v 0.2 0.4 1.9
v 2 0.3 1.9
v 2 0.4 1.9
v -1.3 0.3 1.3
v -1.3 0.4 1.3
v 2 0.3 1.3
v 2 0.4 1.3
v -1.9 0.3 -0.2
v -1.9 0.4 -0.2
v -1.4 0.3 -0.2
v -1.4 0.4 -0.2
v 1.4 0.3 -1.4
v 1.4 0.4 -1.4
v 2 0.3 -1.4
v 2 0.4 -1.4
v -2 0 -2
v -2 0.4 -2
v -1.9 0.1 -2
v -1.9 0.3 -2
v -1.9 0.4 -2
v -1.4 0.1 -2
v -1.4 0.3 -2
v -1.4 0.4 -2
v -1.3 0 -2
v -1.3 0.3 -2
v -1.3 0.4 -2
v 1.3 0 -2
v 1.3 0.3 -2
v 1.3 0.4 -2
v 1.4 0.1 -2
v 1.4 0.3 -2
v 1.4 0.4 -2
v 1.9 0.1 -2
v 1.9 0.3 -2
v 1.9 0.4 -2
v 2 0 -2
v 2 0.4 -2
v -2 0 2
v 2 0 2
v -1.3 0 1.3
v 2 0 1.3
v 1.3 0 -1.3
v 2 0 -1.3
v -2 0 -2
v -1.3 0 -2
v 1.3 0 -2
v 2 0 -2
v -1.9 0.3 1.9
v -0.2 0.3 1.9
v 0.2 0.3 1.9
v 2 0.3 1.9
v -1.4 0.3 1.4
v -0.2 0.3 1.4
v 0.2 0.3 1.4
v 2 0.3 1.4
v -1.3 0.3 1.3
v 2 0.3 1.3
v -1.1 0.3 1.1
v -0.9 0.3 1.1
v -0.7 0.3 1.1
v -0.5 0.3 1.1
v -0.3 0.3 1.1
v -0.0999999 0.3 1.1
v 0.1 0.3 1.1
v 0.3 0.3 1.1
v 0.5 0.3 1.1
v 0.7 0.3 1.1
v 0.9 0.3 1.1
v 1.1 0.3 1.1
v 1.3 0.3 1.1
v 1.5 0.3 1.1
v 1.7 0.3 1.1
v 1.9 0.3 1.1
v -1 0.3 1
v -0.9 0.3 1
v -0.7 0.3 1
v -0.5 0.3 1
v -0.3 0.3 1
v -0.0999999 0.3 1
v 0.1 0.3 1
v 0.3 0.3 1
v 0.5 0.3 1
v 0.7 0.3 1
v 0.9 0.3 1
v 1.1 0.3 1
v 1.3 0.3 1
v 1.5 0.3 1
v 1.7 0.3 1
v 1.9 0.3 1
v -1.1 0.3 0.9
v -1 0.3 0.9
v -1.1 0.3 0.7
v -1 0.3 0.7
v -1.1 0.3 0.5
v -1 0.3 0.5
v -1.1 0.3 0.3
v -1 0.3 0.3
v -1.9 0.3 0.2
v -1.4 0.3 0.2
v -1.1 0.3 0.0999999
v -1 0.3 0.0999999
v -1.1 0.3 -0.1
v -1 0.3 -0.1
v -1.9 0.3 -0.2
v -1.4 0.3 -0.2
v -1.1 0.3 -0.3
v -1 0.3 -0.3
v -1.1 0.3 -0.5
v -1 0.3 -0.5
v -1.1 0.3 -0.7
v -1 0.3 -0.7
v -1.1 0.3 -0.9
v -1 0.3 -0.9
v 1 0.3 -1
v 1.1 0.3 -1
v 1.3 0.3 -1
v 1.5 0.3 -1
v 1.7 0.3 -1
v 1.9 0.3 -1
v -1.1 0.3 -1.1
v -1 0.3 -1.1
v 1 0.3 -1.1
v 1.1 0.3 -1.1
v 1.3 0.3 -1.1
v 1.5 0.3 -1.1
v 1.7 0.3 -1.1
v 1.9 0.3 -1.1
v -1.1 0.3 -1.3
v -1 0.3 -1.3
v 1 0.3 -1.3
v 1.1 0.3 -1.3
v 1.3 0.3 -1.3
v 2 0.3 -1.3
v 1.4 0.3 -1.4
v 2 0.3 -1.4
v -1.1 0.3 -1.5
v -1 0.3 -1.5
v 1 0.3 -1.5
v 1.1 0.3 -1.5
v -1.1 0.3 -1.7
v -1 0.3 -1.7
v 1 0.3 -1.7
v 1.1 0.3 -1.7
v -1.1 0.3 -1.9
v -1 0.3 -1.9
v 1 0.3 -1.9
v 1.1 0.3 -1.9
v 1.9 0.3 -1.9
v 2 0.3 -1.9
v -1.9 0.3 -2
v -1.4 0.3 -2
v -1.3 0.3 -2
v 1.3 0.3 -2
v 1.4 0.3 -2
v 1.9 0.3 -2
v -2 0.4 2
v 2 0.4 2
v -1.9 0.4 1.9
v -0.2 0.4 1.9
v 0.2 0.4 1.9
v 2 0.4 1.9
v -1.4 0.4 1.4
v -0.2 0.4 1.4
v 0.2 0.4 1.4
v 2 0.4 1.4
v -1.3 0.4 1.3
v 2 0.4 1.3
v -1.9 0.4 0.2
v -1.4 0.4 0.2
v -1.9 0.4 -0.2
v -1.4 0.4 -0.2
v 1.3 0.4 -1.3
v 2 0.4 -1.3
v 1.4 0.4 -1.4
v 2 0.4 -1.4
v 1.9 0.4 -1.9
v 2 0.4 -1.9
v -2 0.4 -2
v -1.9 0.4 -2
v -1.4 0.4 -2
v -1.3 0.4 -2
v 1.3 0.4 -2
v 1.4 0.4 -2
v 1.9 0.4 -2
v 2 0.4 -2

# faces
f 3/3/1 2/3/1 1/3/1
f 4/3/1 2/3/1 3/3/1
f 9/3/1 6/3/1 5/3/1
f 10/3/1 6/3/1 9/3/1
f 11/3/1 8/3/1 7/3/1
f 12/3/1 8/3/1 11/3/1
f 15/3/1 14/3/1 13/3/1
f 16/3/1 14/3/1 15/3/1
f 19/3/1 18/3/1 17/3/1
f 20/3/1 18/3/1 19/3/1
f 23/3/1 22/3/1 21/3/1
f 24/3/1 22/3/1 23/3/1
f 25/3/2 26/3/2 29/3/2
f 29/3/2 26/3/2 30/3/2
f 27/3/2 28/3/2 31/3/2
f 31/3/2 28/3/2 32/3/2
f 33/3/2 34/3/2 35/3/2
f 35/3/2 34/3/2 36/3/2
f 37/3/2 38/3/2 39/3/2
f 39/3/2 38/3/2 40/3/2
f 41/3/2 42/3/2 43/3/2
f 43/3/2 42/3/2 44/3/2
f 45/3/2 46/3/2 49/3/2
f 49/3/2 46/3/2 50/3/2
f 47/3/2 48/3/2 51/3/2
f 51/3/2 48/3/2 52/3/2
f 45/3/2 49/3/2 53/3/2
f 49/1/2 50/1/2 53/1/2
f 50/3/2 46/3/2 54/3/2
f 53/1/2 50/1/2 54/1/2
f 46/4/2 47/4/2 55/4/2
f 54/3/2 46/3/2 55/3/2
f 47/3/2 51/3/2 56/3/2
f 55/4/2 47/4/2 56/4/2
f 51/1/2 52/1/2 57/1/2
f 56/3/2 51/3/2 57/3/2
f 52/3/2 48/3/2 58/3/2
f 57/1/2 52/1/2 58/1/2
f 45/3/2 53/3/2 59/3/2
f 59/3/2 53/3/2 60/3/2
f 54/3/2 55/3/2 61/3/2
f 61/3/2 55/3/2 62/3/2
f 56/3/2 57/3/2 63/3/2
f 63/3/2 57/3/2 64/3/2
f 58/3/2 48/3/2 65/3/2
f 65/3/2 48/3/2 66/3/2
f 69/3/3 68/3/3 67/3/3
f 70/3/3 68/3/3 69/3/3
f 73/3/3 72/3/3 71/3/3
f 74/3/3 72/3/3 73/3/3
f 77/3/3 76/3/3 75/3/3
f 78/3/3 76/3/3 77/3/3
f 81/3/3 80/3/3 79/3/3
f 82/3/3 80/3/3 81/3/3
f 85/3/3 84/3/3 83/3/3
f 86/3/3 84/3/3 85/3/3
f 89/3/3 88/3/3 87/3/3
f 90/3/3 88/3/3 89/3/3
f 91/3/4 92/3/4 93/3/4
f 93/3/4 92/3/4 94/3/4
f 95/3/4 96/3/4 97/3/4
f 97/3/4 96/3/4 98/3/4
f 99/3/4 100/3/4 101/3/4
f 101/3/4 100/3/4 102/3/4
f 103/3/4 104/3/4 105/3/4
f 105/3/4 104/3/4 106/3/4
f 107/3/4 108/3/4 109/3/4
f 109/3/4 108/3/4 110/3/4
f 111/3/4 112/3/4 113/3/4
f 113/3/4 112/3/4 114/3/4
f 114/3/4 112/3/4 115/3/4
f 111/3/4 113/3/4 116/3/4
f 113/1/4 114/1/4 116/1/4
f 116/1/4 114/1/4 117/1/4
f 111/3/4 116/3/4 119/3/4
f 117/3/4 118/3/4 119/3/4
f 116/3/4 117/3/4 119/3/4
f 119/3/4 118/3/4 120/3/4
f 120/3/4 118/3/4 121/3/4
f 119/4/4 120/4/4 122/4/4
f 122/4/4 120/4/4 123/4/4
f 122/3/4 123/3/4 125/3/4
f 123/3/4 124/3/4 125/3/4
f 125/3/4 124/3/4 126/3/4
f 126/3/4 124/3/4 127/3/4
f 122/3/4 125/3/4 128/3/4
f 125/1/4 126/1/4 128/1/4
f 128/1/4 126/1/4 129/1/4
f 122/3/4 128/3/4 131/3/4
f 129/3/4 130/3/4 131/3/4
f 128/3/4 129/3/4 131/3/4
f 131/3/4 130/3/4 132/3/4
f 135/3/5 134/3/5 133/3/5
f 136/3/5 134/3/5 135/3/5
f 137/4/5 136/4/5 135/4/5
f 138/4/5 136/4/5 137/4/5
f 139/3/5 135/3/5 133/3/5
f 140/4/5 137/4/5 135/4/5
f 140/3/5 135/3/5 139/3/5
f 141/3/5 138/3/5 137/3/5
f 141/4/5 137/4/5 140/4/5
f 142/3/5 138/3/5 141/3/5
f 143/1/6 144/1/6 147/1/6
f 147/1/6 144/1/6 148/1/6
f 145/1/6 146/1/6 149/1/6
f 149/1/6 146/1/6 150/1/6
f 151/4/6 152/4/6 153/4/6
f 153/4/6 152/4/6 154/4/6
f 154/4/6 152/4/6 155/4/6
f 155/4/6 152/4/6 156/4/6
f 156/4/6 152/4/6 157/4/6
f 157/4/6 152/4/6 158/4/6
f 158/4/6 152/4/6 159/4/6
f 159/4/6 152/4/6 160/4/6
f 160/4/6 152/4/6 161/4/6
f 161/4/6 152/4/6 162/4/6
f 162/4/6 152/4/6 163/4/6
f 163/4/6 152/4/6 164/4/6
f 164/4/6 152/4/6 165/4/6
f 165/4/6 152/4/6 166/4/6
f 166/4/6 152/4/6 167/4/6
f 167/4/6 152/4/6 168/4/6
f 153/2/6 154/2/6 169/2/6
f 154/4/6 155/4/6 170/4/6
f 169/2/6 154/2/6 170/2/6
f 155/2/6 156/2/6 171/2/6
f 170/4/6 155/4/6 171/4/6
f 156/4/6 157/4/6 172/4/6
f 171/2/6 156/2/6 172/2/6
f 157/2/6 158/2/6 173/2/6
f 172/4/6 157/4/6 173/4/6
f 158/4/6 159/4/6 174/4/6
f 173/2/6 158/2/6 174/2/6
f 159/2/6 160/2/6 175/2/6
f 174/4/6 159/4/6 175/4/6
f 160/4/6 161/4/6 176/4/6
f 175/2/6 160/2/6 176/2/6
f 161/2/6 162/2/6 177/2/6
f 176/4/6 161/4/6 177/4/6
f 162/4/6 163/4/6 178/4/6
f 177/2/6 162/2/6 178/2/6
f 163/2/6 164/2/6 179/2/6
f 178/4/6 163/4/6 179/4/6
f 164/4/6 165/4/6 180/4/6
f 179/2/6 164/2/6 180/2/6
f 165/2/6 166/2/6 181/2/6
f 180/4/6 165/4/6 181/4/6
f 166/4/6 167/4/6 182/4/6
f 181/2/6 166/2/6 182/2/6
f 167/2/6 168/2/6 183/2/6
f 182/4/6 167/4/6 183/4/6
f 168/4/6 152/4/6 184/4/6
f 183/2/6 168/2/6 184/2/6
f 151/4/6 153/4/6 185/4/6
f 153/2/6 169/2/6 185/2/6
f 182/4/6 183/4/6 186/4/6
f 185/2/6 169/2/6 186/2/6
f 183/4/6 184/4/6 186/4/6
f 181/4/6 182/4/6 186/4/6
f 180/4/6 181/4/6 186/4/6
f 179/4/6 180/4/6 186/4/6
f 178/4/6 179/4/6 186/4/6
f 177/4/6 178/4/6 186/4/6
f 176/4/6 177/4/6 186/4/6
f 175/4/6 176/4/6 186/4/6
f 174/4/6 175/4/6 186/4/6
f 173/4/6 174/4/6 186/4/6
f 172/4/6 173/4/6 186/4/6
f 171/4/6 172/4/6 186/4/6
f 170/4/6 171/4/6 186/4/6
f 169/4/6 170/4/6 186/4/6
f 151/4/6 185/4/6 187/4/6
f 185/4/6 186/4/6 187/4/6
f 186/4/6 184/4/6 188/4/6
f 187/4/6 186/4/6 188/4/6
f 151/4/6 187/4/6 189/4/6
f 187/2/6 188/2/6 189/2/6
f 188/4/6 184/4/6 190/4/6
f 189/2/6 188/2/6 190/2/6
f 151/4/6 189/4/6 191/4/6
f 189/4/6 190/4/6 191/4/6
f 190/4/6 184/4/6 192/4/6
f 191/4/6 190/4/6 192/4/6
f 143/1/6 147/1/6 193/1/6
f 193/1/6 147/1/6 194/1/6
f 151/4/6 191/4/6 195/4/6
f 191/2/6 192/2/6 195/2/6
f 192/4/6 184/4/6 196/4/6
f 195/2/6 192/2/6 196/2/6
f 151/4/6 195/4/6 197/4/6
f 195/4/6 196/4/6 197/4/6
f 196/4/6 184/4/6 198/4/6
f 197/4/6 196/4/6 198/4/6
f 151/4/6 197/4/6 201/4/6
f 197/2/6 198/2/6 201/2/6
f 198/4/6 184/4/6 202/4/6
f 201/2/6 198/2/6 202/2/6
f 151/4/6 201/4/6 203/4/6
f 201/4/6 202/4/6 203/4/6
f 202/4/6 184/4/6 204/4/6
f 203/4/6 202/4/6 204/4/6
f 151/4/6 203/4/6 205/4/6
f 203/2/6 204/2/6 205/2/6
f 204/4/6 184/4/6 206/4/6
f 205/2/6 204/2/6 206/2/6
f 151/4/6 205/4/6 207/4/6
f 205/4/6 206/4/6 207/4/6
f 206/4/6 184/4/6 208/4/6
f 207/4/6 206/4/6 208/4/6
f 208/4/6 184/4/6 209/4/6
f 209/4/6 184/4/6 210/4/6
f 210/4/6 184/4/6 211/4/6
f 211/4/6 184/4/6 212/4/6
f 212/4/6 184/4/6 213/4/6
f 184/4/6 152/4/6 214/4/6
f 213/4/6 184/4/6 214/4/6
f 151/4/6 207/4/6 215/4/6
f 207/2/6 208/2/6 215/2/6
f 208/4/6 209/4/6 216/4/6
f 215/2/6 208/2/6 216/2/6
f 209/2/6 210/2/6 217/2/6
f 216/4/6 209/4/6 217/4/6
f 210/4/6 211/4/6 218/4/6
f 217/2/6 210/2/6 218/2/6
f 211/2/6 212/2/6 219/2/6
f 218/4/6 211/4/6 219/4/6
f 212/4/6 213/4/6 220/4/6
f 219/2/6 212/2/6 220/2/6
f 213/2/6 214/2/6 221/2/6
f 220/4/6 213/4/6 221/4/6
f 214/4/6 152/4/6 222/4/6
f 221/2/6 214/2/6 222/2/6
f 218/4/6 219/4/6 223/4/6
f 220/4/6 221/4/6 223/4/6
f 221/4/6 222/4/6 223/4/6
f 217/4/6 218/4/6 223/4/6
f 216/4/6 217/4/6 223/4/6
f 215/4/6 216/4/6 223/4/6
f 151/4/6 215/4/6 223/4/6
f 219/4/6 220/4/6 223/4/6
f 223/4/6 222/4/6 224/4/6
f 224/4/6 222/4/6 225/4/6
f 225/4/6 222/4/6 226/4/6
f 226/4/6 222/4/6 227/4/6
f 222/4/6 152/4/6 228/4/6
f 227/4/6 222/4/6 228/4/6
f 151/4/6 223/4/6 231/4/6
f 223/2/6 224/2/6 231/2/6
f 224/4/6 225/4/6 232/4/6
f 231/2/6 224/2/6 232/2/6
f 225/2/6 226/2/6 233/2/6
f 232/4/6 225/4/6 233/4/6
f 226/4/6 227/4/6 234/4/6
f 233/2/6 226/2/6 234/2/6
f 232/4/6 233/4/6 235/4/6
f 151/4/6 231/4/6 235/4/6
f 233/4/6 234/4/6 235/4/6
f 231/4/6 232/4/6 235/4/6
f 235/4/6 234/4/6 236/4/6
f 236/4/6 234/4/6 237/4/6
f 234/4/6 227/4/6 238/4/6
f 237/4/6 234/4/6 238/4/6
f 151/4/6 235/4/6 239/4/6
f 235/2/6 236/2/6 239/2/6
f 236/4/6 237/4/6 240/4/6
f 239/2/6 236/2/6 240/2/6
f 237/2/6 238/2/6 241/2/6
f 240/4/6 237/4/6 241/4/6
f 238/4/6 227/4/6 242/4/6
f 241/2/6 238/2/6 242/2/6
f 229/1/6 230/1/6 243/1/6
f 243/1/6 230/1/6 244/1/6
f 199/1/6 200/1/6 245/1/6
f 245/1/6 200/1/6 246/1/6
f 151/4/6 239/4/6 247/4/6
f 240/4/6 241/4/6 247/4/6
f 239/4/6 240/4/6 247/4/6
f 241/4/6 242/4/6 247/4/6
f 242/4/6 227/4/6 248/4/6
f 247/4/6 242/4/6 248/4/6
f 229/1/6 243/1/6 249/1/6
f 249/1/6 243/1/6 250/1/6
f 251/3/6 252/3/6 253/3/6
f 253/3/6 252/3/6 254/3/6
f 254/3/6 252/3/6 255/3/6
f 255/3/6 252/3/6 256/3/6
f 254/3/6 255/3/6 258/3/6
f 258/3/6 255/3/6 259/3/6
f 257/3/6 258/3/6 261/3/6
f 259/3/6 260/3/6 261/3/6
f 258/3/6 259/3/6 261/3/6
f 261/3/6 260/3/6 262/3/6
f 251/3/6 253/3/6 263/3/6
f 257/3/6 261/3/6 264/3/6
f 251/3/6 263/3/6 265/3/6
f 263/3/6 264/3/6 265/3/6
f 264/3/6 261/3/6 266/3/6
f 265/3/6 264/3/6 266/3/6
f 267/3/6 268/3/6 269/3/6
f 269/3/6 268/3/6 270/3/6
f 251/3/6 265/3/6 273/3/6
f 273/3/6 265/3/6 274/3/6
f 266/3/6 261/3/6 275/3/6
f 275/3/6 261/3/6 276/3/6
f 267/3/6 269/3/6 277/3/6
f 277/3/6 269/3/6 278/3/6
f 271/3/6 272/3/6 279/3/6
f 279/3/6 272/3/6 280/3/6
