# MagicaVoxel @ Ephtracy

# group
o 

# material
mtllib RoadX.vox.mtl
usemtl palette

# normals
vn -1 0 0
vn 1 0 0
vn 0 0 1
vn 0 0 -1
vn 0 -1 0
vn 0 1 0

# texcoords
vt 0.908203 0.5
vt 0.966797 0.5
vt 0.974609 0.5
vt 0.982422 0.5

# verts
v -2 0 2
v -2 0 1.3
v -2 0 -1.3
v -2 0 -2
v -2 0.1 1.9
v -2 0.1 1.4
v -2 0.1 -1.4
v -2 0.1 -1.9
v -2 0.3 1.9
v -2 0.3 1.4
v -2 0.3 1.3
v -2 0.3 -1.3
v -2 0.3 -1.4
v -2 0.3 -1.9
v -2 0.4 2
v -2 0.4 1.9
v -2 0.4 1.4
v -2 0.4 1.3
v -2 0.4 -1.3
v -2 0.4 -1.4
v -2 0.4 -1.9
v -2 0.4 -2
v -1.4 0.3 2
v -1.4 0.3 1.4
v -1.4 0.3 -1.4
v -1.4 0.3 -2
v -1.4 0.4 2
v -1.4 0.4 1.4
v -1.4 0.4 -1.4
v -1.4 0.4 -2
v 1.3 0.3 2
v 1.3 0.3 1.3
v 1.3 0.3 -1.3
v 1.3 0.3 -2
v 1.3 0.4 2
v 1.3 0.4 1.3
v 1.3 0.4 -1.3
v 1.3 0.4 -2
v 1.9 0.3 2
v 1.9 0.3 1.9
v 1.9 0.3 -1.9
v 1.9 0.3 -2
v 1.9 0.4 2
v 1.9 0.4 1.9
v 1.9 0.4 -1.9
v 1.9 0.4 -2
v -1.9 0.3 2
v -1.9 0.3 1.9
v -1.9 0.3 -1.9
v -1.9 0.3 -2
v -1.9 0.4 2
v -1.9 0.4 1.9
v -1.9 0.4 -1.9
v -1.9 0.4 -2
v -1.3 0.3 2
v -1.3 0.3 1.3
v -1.3 0.3 -1.3
v -1.3 0.3 -2
v -1.3 0.4 2
v -1.3 0.4 1.3
v -1.3 0.4 -1.3
v -1.3 0.4 -2
v 1.4 0.3 2
v 1.4 0.3 1.4
v 1.4 0.3 -1.4
v 1.4 0.3 -2
v 1.4 0.4 2
v 1.4 0.4 1.4
v 1.4 0.4 -1.4
v 1.4 0.4 -2
v 2 0 2
v 2 0 1.3
v 2 0 -1.3
v 2 0 -2
v 2 0.1 1.9
v 2 0.1 1.4
v 2 0.1 -1.4
v 2 0.1 -1.9
v 2 0.3 1.9
v 2 0.3 1.4
v 2 0.3 1.3
v 2 0.3 -1.3
v 2 0.3 -1.4
v 2 0.3 -1.9
v 2 0.4 2
v 2 0.4 1.9
v 2 0.4 1.4
v 2 0.4 1.3
v 2 0.4 -1.3
v 2 0.4 -1.4
v 2 0.4 -1.9
v 2 0.4 -2
v -2 0 2
v -2 0.4 2
v -1.9 0.1 2
v -1.9 0.3 2
v -1.9 0.4 2
v -1.4 0.1 2
v -1.4 0.3 2
v -1.4 0.4 2
v -1.3 0 2
v -1.3 0.3 2
v -1.3 0.4 2
v 1.3 0 2
v 1.3 0.3 2
v 1.3 0.4 2
v 1.4 0.1 2
v 1.4 0.3 2
v 1.4 0.4 2
v 1.9 0.1 2
v 1.9 0.3 2
v 1.9 0.4 2
v 2 0 2
v 2 0.4 2
v -2 0.3 1.4
v -2 0.4 1.4
v -1.4 0.3 1.4
v -1.4 0.4 1.4
v 1.4 0.3 1.4
v 1.4 0.4 1.4
v 2 0.3 1.4
v 2 0.4 1.4
v -2 0.3 -1.3
v -2 0.4 -1.3
v -1.3 0.3 -1.3
v -1.3 0.4 -1.3
v 1.3 0.3 -1.3
v 1.3 0.4 -1.3
v 2 0.3 -1.3
v 2 0.4 -1.3
v -2 0.3 -1.9
v -2 0.4 -1.9
v -1.9 0.3 -1.9
v -1.9 0.4 -1.9
v 1.9 0.3 -1.9
v 1.9 0.4 -1.9
v 2 0.3 -1.9
v 2 0.4 -1.9
v -2 0.3 1.9
v -2 0.4 1.9
v -1.9 0.3 1.9
v -1.9 0.4 1.9
v 1.9 0.3 1.9
v 1.9 0.4 1.9
v 2 0.3 1.9
v 2 0.4 1.9
v -2 0.3 1.3
v -2 0.4 1.3
v -1.3 0.3 1.3
v -1.3 0.4 1.3
v 1.3 0.3 1.3
v 1.3 0.4 1.3
v 2 0.3 1.3
v 2 0.4 1.3
v -2 0.3 -1.4
v -2 0.4 -1.4
v -1.4 0.3 -1.4
v -1.4 0.4 -1.4
v 1.4 0.3 -1.4
v 1.4 0.4 -1.4
v 2 0.3 -1.4
v 2 0.4 -1.4
v -2 0 -2
v -2 0.4 -2
v -1.9 0.1 -2
v -1.9 0.3 -2
v -1.9 0.4 -2
v -1.4 0.1 -2
v -1.4 0.3 -2
v -1.4 0.4 -2
v -1.3 0 -2
v -1.3 0.3 -2
v -1.3 0.4 -2
v 1.3 0 -2
v 1.3 0.3 -2
v 1.3 0.4 -2
v 1.4 0.1 -2
v 1.4 0.3 -2
v 1.4 0.4 -2
v 1.9 0.1 -2
v 1.9 0.3 -2
v 1.9 0.4 -2
v 2 0 -2
v 2 0.4 -2
v -2 0 2
v -1.3 0 2
v 1.3 0 2
v 2 0 2
v -2 0 1.3
v -1.3 0 1.3
v 1.3 0 1.3
v 2 0 1.3
v -2 0 -1.3
v -1.3 0 -1.3
v 1.3 0 -1.3
v 2 0 -1.3
v -2 0 -2
v -1.3 0 -2
v 1.3 0 -2
v 2 0 -2
v -1.9 0.3 2
v -1.4 0.3 2
v -1.3 0.3 2
v 1.3 0.3 2
v 1.4 0.3 2
v 1.9 0.3 2
v -2 0.3 1.9
v -1.9 0.3 1.9
v -1.1 0.3 1.9
v -1 0.3 1.9
v 1 0.3 1.9
v 1.1 0.3 1.9
v 1.9 0.3 1.9
v 2 0.3 1.9
v -1.1 0.3 1.7
v -1 0.3 1.7
v 1 0.3 1.7
v 1.1 0.3 1.7
v -1.1 0.3 1.5
v -1 0.3 1.5
v 1 0.3 1.5
v 1.1 0.3 1.5
v -2 0.3 1.4
v -1.4 0.3 1.4
v 1.4 0.3 1.4
v 2 0.3 1.4
v -2 0.3 1.3
v -1.3 0.3 1.3
v -1.1 0.3 1.3
v -1 0.3 1.3
v 1 0.3 1.3
v 1.1 0.3 1.3
v 1.3 0.3 1.3
v 2 0.3 1.3
v -1.9 0.3 1.1
v -1.7 0.3 1.1
v -1.5 0.3 1.1
v -1.3 0.3 1.1
v -1.1 0.3 1.1
v -1 0.3 1.1
v 1 0.3 1.1
v 1.1 0.3 1.1
v 1.3 0.3 1.1
v 1.5 0.3 1.1
v 1.7 0.3 1.1
v 1.9 0.3 1.1
v -1.9 0.3 1
v -1.7 0.3 1
v -1.5 0.3 1
v -1.3 0.3 1
v -1.1 0.3 1
v -1 0.3 1
v 1 0.3 1
v 1.1 0.3 1
v 1.3 0.3 1
v 1.5 0.3 1
v 1.7 0.3 1
v 1.9 0.3 1
v -1.9 0.3 -1
v -1.7 0.3 -1
v -1.5 0.3 -1
v -1.3 0.3 -1
v -1.1 0.3 -1
v -1 0.3 -1
v 1 0.3 -1
v 1.1 0.3 -1
v 1.3 0.3 -1
v 1.5 0.3 -1
v 1.7 0.3 -1
v 1.9 0.3 -1
v -1.9 0.3 -1.1
v -1.7 0.3 -1.1
v -1.5 0.3 -1.1
v -1.3 0.3 -1.1
v -1.1 0.3 -1.1
v -1 0.3 -1.1
v 1 0.3 -1.1
v 1.1 0.3 -1.1
v 1.3 0.3 -1.1
v 1.5 0.3 -1.1
v 1.7 0.3 -1.1
v 1.9 0.3 -1.1
v -2 0.3 -1.3
v -1.3 0.3 -1.3
v -1.1 0.3 -1.3
v -1 0.3 -1.3
v 1 0.3 -1.3
v 1.1 0.3 -1.3
v 1.3 0.3 -1.3
v 2 0.3 -1.3
v -2 0.3 -1.4
v -1.4 0.3 -1.4
v 1.4 0.3 -1.4
v 2 0.3 -1.4
v -1.1 0.3 -1.5
v -1 0.3 -1.5
v 1 0.3 -1.5
v 1.1 0.3 -1.5
v -1.1 0.3 -1.7
v -1 0.3 -1.7
v 1 0.3 -1.7
v 1.1 0.3 -1.7
v -2 0.3 -1.9
v -1.9 0.3 -1.9
v -1.1 0.3 -1.9
v -1 0.3 -1.9
v 1 0.3 -1.9
v 1.1 0.3 -1.9
v 1.9 0.3 -1.9
v 2 0.3 -1.9
v -1.9 0.3 -2
v -1.4 0.3 -2
v -1.3 0.3 -2
v 1.3 0.3 -2
v 1.4 0.3 -2
v 1.9 0.3 -2
v -2 0.4 2
v -1.9 0.4 2
v -1.4 0.4 2
v -1.3 0.4 2
v 1.3 0.4 2
v 1.4 0.4 2
v 1.9 0.4 2
v 2 0.4 2
v -2 0.4 1.9
v -1.9 0.4 1.9
v 1.9 0.4 1.9
v 2 0.4 1.9
v -2 0.4 1.4
v -1.4 0.4 1.4
v 1.4 0.4 1.4
v 2 0.4 1.4
v -2 0.4 1.3
v -1.3 0.4 1.3
v 1.3 0.4 1.3
v 2 0.4 1.3
v -2 0.4 -1.3
v -1.3 0.4 -1.3
v 1.3 0.4 -1.3
v 2 0.4 -1.3
v -2 0.4 -1.4
v -1.4 0.4 -1.4
v 1.4 0.4 -1.4
v 2 0.4 -1.4
v -2 0.4 -1.9
v -1.9 0.4 -1.9
v 1.9 0.4 -1.9
v 2 0.4 -1.9
v -2 0.4 -2
v -1.9 0.4 -2
v -1.4 0.4 -2
v -1.3 0.4 -2
v 1.3 0.4 -2
v 1.4 0.4 -2
v 1.9 0.4 -2
v 2 0.4 -2

# faces
f 5/3/1 2/3/1 1/3/1
f 6/3/1 2/3/1 5/3/1
f 7/3/1 4/3/1 3/3/1
f 8/3/1 4/3/1 7/3/1
f 9/3/1 5/3/1 1/3/1
f 9/1/1 6/1/1 5/1/1
f 10/3/1 2/3/1 6/3/1
f 10/1/1 6/1/1 9/1/1
f 11/4/1 3/4/1 2/4/1
f 11/3/1 2/3/1 10/3/1
f 12/3/1 7/3/1 3/3/1
f 12/4/1 3/4/1 11/4/1
f 13/1/1 8/1/1 7/1/1
f 13/3/1 7/3/1 12/3/1
f 14/3/1 4/3/1 8/3/1
f 14/1/1 8/1/1 13/1/1
f 15/3/1 9/3/1 1/3/1
f 16/3/1 9/3/1 15/3/1
f 17/3/1 11/3/1 10/3/1
f 18/3/1 11/3/1 17/3/1
f 19/3/1 13/3/1 12/3/1
f 20/3/1 13/3/1 19/3/1
f 21/3/1 4/3/1 14/3/1
f 22/3/1 4/3/1 21/3/1
f 27/3/1 24/3/1 23/3/1
f 28/3/1 24/3/1 27/3/1
f 29/3/1 26/3/1 25/3/1
f 30/3/1 26/3/1 29/3/1
f 35/3/1 32/3/1 31/3/1
f 36/3/1 32/3/1 35/3/1
f 37/3/1 34/3/1 33/3/1
f 38/3/1 34/3/1 37/3/1
f 43/3/1 40/3/1 39/3/1
f 44/3/1 40/3/1 43/3/1
f 45/3/1 42/3/1 41/3/1
f 46/3/1 42/3/1 45/3/1
f 47/3/2 48/3/2 51/3/2
f 51/3/2 48/3/2 52/3/2
f 49/3/2 50/3/2 53/3/2
f 53/3/2 50/3/2 54/3/2
f 55/3/2 56/3/2 59/3/2
f 59/3/2 56/3/2 60/3/2
f 57/3/2 58/3/2 61/3/2
f 61/3/2 58/3/2 62/3/2
f 63/3/2 64/3/2 67/3/2
f 67/3/2 64/3/2 68/3/2
f 65/3/2 66/3/2 69/3/2
f 69/3/2 66/3/2 70/3/2
f 71/3/2 72/3/2 75/3/2
f 75/3/2 72/3/2 76/3/2
f 73/3/2 74/3/2 77/3/2
f 77/3/2 74/3/2 78/3/2
f 71/3/2 75/3/2 79/3/2
f 75/1/2 76/1/2 79/1/2
f 76/3/2 72/3/2 80/3/2
f 79/1/2 76/1/2 80/1/2
f 72/4/2 73/4/2 81/4/2
f 80/3/2 72/3/2 81/3/2
f 73/3/2 77/3/2 82/3/2
f 81/4/2 73/4/2 82/4/2
f 77/1/2 78/1/2 83/1/2
f 82/3/2 77/3/2 83/3/2
f 78/3/2 74/3/2 84/3/2
f 83/1/2 78/1/2 84/1/2
f 71/3/2 79/3/2 85/3/2
f 85/3/2 79/3/2 86/3/2
f 80/3/2 81/3/2 87/3/2
f 87/3/2 81/3/2 88/3/2
f 82/3/2 83/3/2 89/3/2
f 89/3/2 83/3/2 90/3/2
f 84/3/2 74/3/2 91/3/2
f 91/3/2 74/3/2 92/3/2
f 95/3/3 94/3/3 93/3/3
f 96/3/3 94/3/3 95/3/3
f 97/3/3 94/3/3 96/3/3
f 98/3/3 95/3/3 93/3/3
f 98/1/3 96/1/3 95/1/3
f 99/1/3 96/1/3 98/1/3
f 101/3/3 98/3/3 93/3/3
f 101/3/3 100/3/3 99/3/3
f 101/3/3 99/3/3 98/3/3
f 102/3/3 100/3/3 101/3/3
f 103/3/3 100/3/3 102/3/3
f 104/4/3 102/4/3 101/4/3
f 105/4/3 102/4/3 104/4/3
f 107/3/3 105/3/3 104/3/3
f 107/3/3 106/3/3 105/3/3
f 108/3/3 106/3/3 107/3/3
f 109/3/3 106/3/3 108/3/3
f 110/3/3 107/3/3 104/3/3
f 110/1/3 108/1/3 107/1/3
f 111/1/3 108/1/3 110/1/3
f 113/3/3 110/3/3 104/3/3
f 113/3/3 112/3/3 111/3/3
f 113/3/3 111/3/3 110/3/3
f 114/3/3 112/3/3 113/3/3
f 117/3/3 116/3/3 115/3/3
f 118/3/3 116/3/3 117/3/3
f 121/3/3 120/3/3 119/3/3
f 122/3/3 120/3/3 121/3/3
f 125/3/3 124/3/3 123/3/3
f 126/3/3 124/3/3 125/3/3
f 129/3/3 128/3/3 127/3/3
f 130/3/3 128/3/3 129/3/3
f 133/3/3 132/3/3 131/3/3
f 134/3/3 132/3/3 133/3/3
f 137/3/3 136/3/3 135/3/3
f 138/3/3 136/3/3 137/3/3
f 139/3/4 140/3/4 141/3/4
f 141/3/4 140/3/4 142/3/4
f 143/3/4 144/3/4 145/3/4
f 145/3/4 144/3/4 146/3/4
f 147/3/4 148/3/4 149/3/4
f 149/3/4 148/3/4 150/3/4
f 151/3/4 152/3/4 153/3/4
f 153/3/4 152/3/4 154/3/4
f 155/3/4 156/3/4 157/3/4
f 157/3/4 156/3/4 158/3/4
f 159/3/4 160/3/4 161/3/4
f 161/3/4 160/3/4 162/3/4
f 163/3/4 164/3/4 165/3/4
f 165/3/4 164/3/4 166/3/4
f 166/3/4 164/3/4 167/3/4
f 163/3/4 165/3/4 168/3/4
f 165/1/4 166/1/4 168/1/4
f 168/1/4 166/1/4 169/1/4
f 163/3/4 168/3/4 171/3/4
f 169/3/4 170/3/4 171/3/4
f 168/3/4 169/3/4 171/3/4
f 171/3/4 170/3/4 172/3/4
f 172/3/4 170/3/4 173/3/4
f 171/4/4 172/4/4 174/4/4
f 174/4/4 172/4/4 175/4/4
f 174/3/4 175/3/4 177/3/4
f 175/3/4 176/3/4 177/3/4
f 177/3/4 176/3/4 178/3/4
f 178/3/4 176/3/4 179/3/4
f 174/3/4 177/3/4 180/3/4
f 177/1/4 178/1/4 180/1/4
f 180/1/4 178/1/4 181/1/4
f 174/3/4 180/3/4 183/3/4
f 181/3/4 182/3/4 183/3/4
f 180/3/4 181/3/4 183/3/4
f 183/3/4 182/3/4 184/3/4
f 189/3/5 186/3/5 185/3/5
f 190/4/5 187/4/5 186/4/5
f 190/3/5 186/3/5 189/3/5
f 191/3/5 188/3/5 187/3/5
f 191/4/5 187/4/5 190/4/5
f 192/3/5 188/3/5 191/3/5
f 193/4/5 190/4/5 189/4/5
f 193/4/5 191/4/5 190/4/5
f 193/4/5 192/4/5 191/4/5
f 194/4/5 192/4/5 193/4/5
f 195/4/5 192/4/5 194/4/5
f 196/4/5 192/4/5 195/4/5
f 197/3/5 194/3/5 193/3/5
f 198/4/5 195/4/5 194/4/5
f 198/3/5 194/3/5 197/3/5
f 199/3/5 196/3/5 195/3/5
f 199/4/5 195/4/5 198/4/5
f 200/3/5 196/3/5 199/3/5
f 201/1/6 202/1/6 208/1/6
f 203/4/6 204/4/6 209/4/6
f 209/4/6 204/4/6 210/4/6
f 210/4/6 204/4/6 211/4/6
f 211/4/6 204/4/6 212/4/6
f 205/1/6 206/1/6 213/1/6
f 203/4/6 209/4/6 215/4/6
f 209/2/6 210/2/6 215/2/6
f 210/4/6 211/4/6 216/4/6
f 215/2/6 210/2/6 216/2/6
f 211/2/6 212/2/6 217/2/6
f 216/4/6 211/4/6 217/4/6
f 212/4/6 204/4/6 218/4/6
f 217/2/6 212/2/6 218/2/6
f 216/4/6 217/4/6 219/4/6
f 203/4/6 215/4/6 219/4/6
f 217/4/6 218/4/6 219/4/6
f 215/4/6 216/4/6 219/4/6
f 219/4/6 218/4/6 220/4/6
f 220/4/6 218/4/6 221/4/6
f 218/4/6 204/4/6 222/4/6
f 221/4/6 218/4/6 222/4/6
f 207/1/6 208/1/6 223/1/6
f 208/1/6 202/1/6 224/1/6
f 223/1/6 208/1/6 224/1/6
f 213/1/6 214/1/6 225/1/6
f 205/1/6 213/1/6 225/1/6
f 225/1/6 214/1/6 226/1/6
f 203/4/6 219/4/6 228/4/6
f 219/2/6 220/2/6 229/2/6
f 228/4/6 219/4/6 229/4/6
f 220/4/6 221/4/6 230/4/6
f 229/2/6 220/2/6 230/2/6
f 221/2/6 222/2/6 231/2/6
f 230/4/6 221/4/6 231/4/6
f 222/4/6 204/4/6 232/4/6
f 231/2/6 222/2/6 232/2/6
f 232/4/6 204/4/6 233/4/6
f 228/4/6 229/4/6 235/4/6
f 233/4/6 234/4/6 235/4/6
f 232/4/6 233/4/6 235/4/6
f 231/4/6 232/4/6 235/4/6
f 230/4/6 231/4/6 235/4/6
f 227/4/6 228/4/6 235/4/6
f 229/4/6 230/4/6 235/4/6
f 235/4/6 234/4/6 236/4/6
f 236/4/6 234/4/6 237/4/6
f 237/4/6 234/4/6 238/4/6
f 238/4/6 234/4/6 239/4/6
f 239/4/6 234/4/6 240/4/6
f 240/4/6 234/4/6 241/4/6
f 241/4/6 234/4/6 242/4/6
f 242/4/6 234/4/6 243/4/6
f 243/4/6 234/4/6 244/4/6
f 244/4/6 234/4/6 245/4/6
f 245/4/6 234/4/6 246/4/6
f 227/4/6 235/4/6 247/4/6
f 235/2/6 236/2/6 247/2/6
f 236/4/6 237/4/6 248/4/6
f 247/2/6 236/2/6 248/2/6
f 237/2/6 238/2/6 249/2/6
f 248/4/6 237/4/6 249/4/6
f 238/4/6 239/4/6 250/4/6
f 249/2/6 238/2/6 250/2/6
f 239/2/6 240/2/6 251/2/6
f 250/4/6 239/4/6 251/4/6
f 240/4/6 241/4/6 252/4/6
f 251/2/6 240/2/6 252/2/6
f 241/2/6 242/2/6 253/2/6
f 252/4/6 241/4/6 253/4/6
f 242/4/6 243/4/6 254/4/6
f 253/2/6 242/2/6 254/2/6
f 243/2/6 244/2/6 255/2/6
f 254/4/6 243/4/6 255/4/6
f 244/4/6 245/4/6 256/4/6
f 255/2/6 244/2/6 256/2/6
f 245/2/6 246/2/6 257/2/6
f 256/4/6 245/4/6 257/4/6
f 246/4/6 234/4/6 258/4/6
f 257/2/6 246/2/6 258/2/6
f 256/4/6 257/4/6 259/4/6
f 255/4/6 256/4/6 259/4/6
f 257/4/6 258/4/6 259/4/6
f 254/4/6 255/4/6 259/4/6
f 253/4/6 254/4/6 259/4/6
f 252/4/6 253/4/6 259/4/6
f 251/4/6 252/4/6 259/4/6
f 250/4/6 251/4/6 259/4/6
f 249/4/6 250/4/6 259/4/6
f 248/4/6 249/4/6 259/4/6
f 247/4/6 248/4/6 259/4/6
f 227/4/6 247/4/6 259/4/6
f 259/4/6 258/4/6 260/4/6
f 260/4/6 258/4/6 261/4/6
f 261/4/6 258/4/6 262/4/6
f 262/4/6 258/4/6 263/4/6
f 263/4/6 258/4/6 264/4/6
f 264/4/6 258/4/6 265/4/6
f 265/4/6 258/4/6 266/4/6
f 266/4/6 258/4/6 267/4/6
f 267/4/6 258/4/6 268/4/6
f 268/4/6 258/4/6 269/4/6
f 258/4/6 234/4/6 270/4/6
f 269/4/6 258/4/6 270/4/6
f 227/4/6 259/4/6 271/4/6
f 259/2/6 260/2/6 271/2/6
f 260/4/6 261/4/6 272/4/6
f 271/2/6 260/2/6 272/2/6
f 261/2/6 262/2/6 273/2/6
f 272/4/6 261/4/6 273/4/6
f 262/4/6 263/4/6 274/4/6
f 273/2/6 262/2/6 274/2/6
f 263/2/6 264/2/6 275/2/6
f 274/4/6 263/4/6 275/4/6
f 264/4/6 265/4/6 276/4/6
f 275/2/6 264/2/6 276/2/6
f 265/2/6 266/2/6 277/2/6
f 276/4/6 265/4/6 277/4/6
f 266/4/6 267/4/6 278/4/6
f 277/2/6 266/2/6 278/2/6
f 267/2/6 268/2/6 279/2/6
f 278/4/6 267/4/6 279/4/6
f 268/4/6 269/4/6 280/4/6
f 279/2/6 268/2/6 280/2/6
f 269/2/6 270/2/6 281/2/6
f 280/4/6 269/4/6 281/4/6
f 270/4/6 234/4/6 282/4/6
f 281/2/6 270/2/6 282/2/6
f 278/4/6 279/4/6 283/4/6
f 280/4/6 281/4/6 283/4/6
f 281/4/6 282/4/6 283/4/6
f 277/4/6 278/4/6 283/4/6
f 276/4/6 277/4/6 283/4/6
f 275/4/6 276/4/6 283/4/6
f 274/4/6 275/4/6 283/4/6
f 273/4/6 274/4/6 283/4/6
f 272/4/6 273/4/6 283/4/6
f 271/4/6 272/4/6 283/4/6
f 227/4/6 271/4/6 283/4/6
f 279/4/6 280/4/6 283/4/6
f 283/4/6 282/4/6 284/4/6
f 284/4/6 282/4/6 285/4/6
f 285/4/6 282/4/6 286/4/6
f 286/4/6 282/4/6 287/4/6
f 287/4/6 282/4/6 288/4/6
f 288/4/6 282/4/6 289/4/6
f 282/4/6 234/4/6 290/4/6
f 289/4/6 282/4/6 290/4/6
f 284/4/6 285/4/6 295/4/6
f 285/2/6 286/2/6 295/2/6
f 286/4/6 287/4/6 296/4/6
f 295/2/6 286/2/6 296/2/6
f 287/2/6 288/2/6 297/2/6
f 296/4/6 287/4/6 297/4/6
f 288/4/6 289/4/6 298/4/6
f 297/2/6 288/2/6 298/2/6
f 296/4/6 297/4/6 299/4/6
f 284/4/6 295/4/6 299/4/6
f 297/4/6 298/4/6 299/4/6
f 295/4/6 296/4/6 299/4/6
f 299/4/6 298/4/6 300/4/6
f 300/4/6 298/4/6 301/4/6
f 298/4/6 289/4/6 302/4/6
f 301/4/6 298/4/6 302/4/6
f 291/1/6 292/1/6 303/1/6
f 303/1/6 292/1/6 304/1/6
f 284/4/6 299/4/6 305/4/6
f 299/2/6 300/2/6 305/2/6
f 300/4/6 301/4/6 306/4/6
f 305/2/6 300/2/6 306/2/6
f 301/2/6 302/2/6 307/2/6
f 306/4/6 301/4/6 307/4/6
f 302/4/6 289/4/6 308/4/6
f 307/2/6 302/2/6 308/2/6
f 293/1/6 294/1/6 309/1/6
f 309/1/6 294/1/6 310/1/6
f 304/1/6 292/1/6 311/1/6
f 311/1/6 292/1/6 312/1/6
f 284/4/6 305/4/6 313/4/6
f 306/4/6 307/4/6 313/4/6
f 305/4/6 306/4/6 313/4/6
f 307/4/6 308/4/6 313/4/6
f 308/4/6 289/4/6 314/4/6
f 313/4/6 308/4/6 314/4/6
f 293/1/6 309/1/6 315/1/6
f 315/1/6 309/1/6 316/1/6
f 317/3/6 318/3/6 325/3/6
f 325/3/6 318/3/6 326/3/6
f 323/3/6 324/3/6 327/3/6
f 327/3/6 324/3/6 328/3/6
f 319/3/6 320/3/6 330/3/6
f 321/3/6 322/3/6 331/3/6
f 329/3/6 330/3/6 333/3/6
f 330/3/6 320/3/6 334/3/6
f 333/3/6 330/3/6 334/3/6
f 331/3/6 332/3/6 335/3/6
f 321/3/6 331/3/6 335/3/6
f 335/3/6 332/3/6 336/3/6
f 337/3/6 338/3/6 341/3/6
f 341/3/6 338/3/6 342/3/6
f 339/3/6 340/3/6 343/3/6
f 343/3/6 340/3/6 344/3/6
f 345/3/6 346/3/6 349/3/6
f 349/3/6 346/3/6 350/3/6
f 342/3/6 338/3/6 351/3/6
f 351/3/6 338/3/6 352/3/6
f 339/3/6 343/3/6 353/3/6
f 353/3/6 343/3/6 354/3/6
f 347/3/6 348/3/6 355/3/6
f 355/3/6 348/3/6 356/3/6
