# MagicaVoxel @ Ephtracy

# group
o RoadHor

# material
mtllib RoadHorFin.vox-0-RoadHor.vox.mtl
usemtl palette

# normals
vn -1 0 0
vn 1 0 0
vn 0 0 1
vn 0 0 -1
vn 0 -1 0
vn 0 1 0

# texcoords
vt 0.908203 0.5
vt 0.966797 0.5
vt 0.974609 0.5
vt 0.982422 0.5

# verts
v -2 0 2
v -2 0 -2
v -2 0.2 1.9
v -2 0.2 1.4
v -2 0.2 1.3
v -2 0.2 -1.3
v -2 0.2 -1.4
v -2 0.2 -1.9
v -2 0.3 1.9
v -2 0.3 1.4
v -2 0.3 1.3
v -2 0.3 -1.3
v -2 0.3 -1.4
v -2 0.3 -1.9
v -2 0.4 2
v -2 0.4 1.9
v -2 0.4 1.4
v -2 0.4 1.3
v -2 0.4 -1.3
v -2 0.4 -1.4
v -2 0.4 -1.9
v -2 0.4 -2
v -0.2 0.3 1.9
v -0.2 0.3 1.4
v -0.2 0.3 -1.4
v -0.2 0.3 -1.9
v -0.2 0.4 1.9
v -0.2 0.4 1.4
v -0.2 0.4 -1.4
v -0.2 0.4 -1.9
v 0.2 0.3 1.9
v 0.2 0.3 1.4
v 0.2 0.3 -1.4
v 0.2 0.3 -1.9
v 0.2 0.4 1.9
v 0.2 0.4 1.4
v 0.2 0.4 -1.4
v 0.2 0.4 -1.9
v 2 0 2
v 2 0 -2
v 2 0.2 1.9
v 2 0.2 1.4
v 2 0.2 1.3
v 2 0.2 -1.3
v 2 0.2 -1.4
v 2 0.2 -1.9
v 2 0.3 1.9
v 2 0.3 1.4
v 2 0.3 1.3
v 2 0.3 -1.3
v 2 0.3 -1.4
v 2 0.3 -1.9
v 2 0.4 2
v 2 0.4 1.9
v 2 0.4 1.4
v 2 0.4 1.3
v 2 0.4 -1.3
v 2 0.4 -1.4
v 2 0.4 -1.9
v 2 0.4 -2
v -2 0 2
v -2 0.4 2
v 2 0 2
v 2 0.4 2
v -2 0.3 1.4
v -2 0.4 1.4
v -0.2 0.3 1.4
v -0.2 0.4 1.4
v 0.2 0.3 1.4
v 0.2 0.4 1.4
v 2 0.3 1.4
v 2 0.4 1.4
v -2 0.3 -1.3
v -2 0.4 -1.3
v -0.4 0.3 -1.3
v -0.3 0.3 -1.3
v 0.3 0.3 -1.3
v 0.4 0.3 -1.3
v 2 0.3 -1.3
v 2 0.4 -1.3
v -2 0.3 -1.9
v -2 0.4 -1.9
v -0.2 0.3 -1.9
v -0.2 0.4 -1.9
v 0.2 0.3 -1.9
v 0.2 0.4 -1.9
v 2 0.3 -1.9
v 2 0.4 -1.9
v -2 0.3 1.9
v -2 0.4 1.9
v -0.2 0.3 1.9
v -0.2 0.4 1.9
v 0.2 0.3 1.9
v 0.2 0.4 1.9
v 2 0.3 1.9
v 2 0.4 1.9
v -2 0.3 1.3
v -2 0.4 1.3
v -0.4 0.3 1.3
v -0.3 0.3 1.3
v 0.3 0.3 1.3
v 0.4 0.3 1.3
v 2 0.3 1.3
v 2 0.4 1.3
v -2 0.3 -1.4
v -2 0.4 -1.4
v -0.2 0.3 -1.4
v -0.2 0.4 -1.4
v 0.2 0.3 -1.4
v 0.2 0.4 -1.4
v 2 0.3 -1.4
v 2 0.4 -1.4
v -2 0 -2
v -2 0.4 -2
v 2 0 -2
v 2 0.4 -2
v -2 0 2
v 2 0 2
v -2 0 -2
v 2 0 -2
v -2 0.3 1.9
v -0.2 0.3 1.9
v 0.2 0.3 1.9
v 2 0.3 1.9
v -2 0.3 1.4
v -0.2 0.3 1.4
v 0.2 0.3 1.4
v 2 0.3 1.4
v -2 0.3 1.3
v -0.4 0.3 1.3
v -0.3 0.3 1.3
v 0.3 0.3 1.3
v 0.4 0.3 1.3
v 2 0.3 1.3
v -1.9 0.3 1.2
v -1.7 0.3 1.2
v -1.6 0.3 1.2
v -1.4 0.3 1.2
v -1.2 0.3 1.2
v -1 0.3 1.2
v -0.8 0.3 1.2
v -0.6 0.3 1.2
v 0.6 0.3 1.2
v 0.8 0.3 1.2
v 1 0.3 1.2
v 1.2 0.3 1.2
v 1.4 0.3 1.2
v 1.6 0.3 1.2
v 1.7 0.3 1.2
v 1.9 0.3 1.2
v -1.9 0.3 1.1
v -1.7 0.3 1.1
v -1.6 0.3 1.1
v -1.4 0.3 1.1
v -1.2 0.3 1.1
v -1 0.3 1.1
v -0.8 0.3 1.1
v -0.6 0.3 1.1
v -0.3 0.3 1.1
v 0.3 0.3 1.1
v 0.6 0.3 1.1
v 0.8 0.3 1.1
v 1 0.3 1.1
v 1.2 0.3 1.1
v 1.4 0.3 1.1
v 1.6 0.3 1.1
v 1.7 0.3 1.1
v 1.9 0.3 1.1
v -0.3 0.3 0.9
v 0.3 0.3 0.9
v -0.3 0.3 0.7
v 0.3 0.3 0.7
v -0.3 0.3 0.5
v 0.3 0.3 0.5
v -0.3 0.3 0.3
v 0.3 0.3 0.3
v -0.3 0.3 0.0999999
v 0.3 0.3 0.0999999
v -0.3 0.3 -0.1
v 0.3 0.3 -0.1
v -0.3 0.3 -0.3
v 0.3 0.3 -0.3
v -0.3 0.3 -0.5
v 0.3 0.3 -0.5
v -0.3 0.3 -0.7
v 0.3 0.3 -0.7
v -0.3 0.3 -0.9
v 0.3 0.3 -0.9
v -1.9 0.3 -1.1
v -1.7 0.3 -1.1
v -1.6 0.3 -1.1
v -1.4 0.3 -1.1
v -1.2 0.3 -1.1
v -1 0.3 -1.1
v -0.8 0.3 -1.1
v -0.6 0.3 -1.1
v -0.3 0.3 -1.1
v 0.3 0.3 -1.1
v 0.6 0.3 -1.1
v 0.8 0.3 -1.1
v 1 0.3 -1.1
v 1.2 0.3 -1.1
v 1.4 0.3 -1.1
v 1.6 0.3 -1.1
v 1.7 0.3 -1.1
v 1.9 0.3 -1.1
v -1.9 0.3 -1.2
v -1.7 0.3 -1.2
v -1.6 0.3 -1.2
v -1.4 0.3 -1.2
v -1.2 0.3 -1.2
v -1 0.3 -1.2
v -0.8 0.3 -1.2
v -0.6 0.3 -1.2
v 0.6 0.3 -1.2
v 0.8 0.3 -1.2
v 1 0.3 -1.2
v 1.2 0.3 -1.2
v 1.4 0.3 -1.2
v 1.6 0.3 -1.2
v 1.7 0.3 -1.2
v 1.9 0.3 -1.2
v -2 0.3 -1.3
v -0.4 0.3 -1.3
v -0.3 0.3 -1.3
v 0.3 0.3 -1.3
v 0.4 0.3 -1.3
v 2 0.3 -1.3
v -2 0.3 -1.4
v -0.2 0.3 -1.4
v 0.2 0.3 -1.4
v 2 0.3 -1.4
v -2 0.3 -1.9
v -0.2 0.3 -1.9
v 0.2 0.3 -1.9
v 2 0.3 -1.9
v -2 0.4 2
v 2 0.4 2
v -2 0.4 1.9
v -0.2 0.4 1.9
v 0.2 0.4 1.9
v 2 0.4 1.9
v -2 0.4 1.4
v -0.2 0.4 1.4
v 0.2 0.4 1.4
v 2 0.4 1.4
v -2 0.4 1.3
v 2 0.4 1.3
v -2 0.4 -1.3
v 2 0.4 -1.3
v -2 0.4 -1.4
v -0.2 0.4 -1.4
v 0.2 0.4 -1.4
v 2 0.4 -1.4
v -2 0.4 -1.9
v -0.2 0.4 -1.9
v 0.2 0.4 -1.9
v 2 0.4 -1.9
v -2 0.4 -2
v 2 0.4 -2

# faces
f 3/3/1 2/3/1 1/3/1
f 4/3/1 2/3/1 3/3/1
f 5/3/1 2/3/1 4/3/1
f 6/3/1 2/3/1 5/3/1
f 7/3/1 2/3/1 6/3/1
f 8/3/1 2/3/1 7/3/1
f 9/3/1 3/3/1 1/3/1
f 9/1/1 4/1/1 3/1/1
f 10/3/1 5/3/1 4/3/1
f 10/1/1 4/1/1 9/1/1
f 11/4/1 6/4/1 5/4/1
f 11/3/1 5/3/1 10/3/1
f 12/3/1 7/3/1 6/3/1
f 12/4/1 6/4/1 11/4/1
f 13/1/1 8/1/1 7/1/1
f 13/3/1 7/3/1 12/3/1
f 14/3/1 2/3/1 8/3/1
f 14/1/1 8/1/1 13/1/1
f 15/3/1 9/3/1 1/3/1
f 16/3/1 9/3/1 15/3/1
f 17/3/1 11/3/1 10/3/1
f 18/3/1 11/3/1 17/3/1
f 19/3/1 13/3/1 12/3/1
f 20/3/1 13/3/1 19/3/1
f 21/3/1 2/3/1 14/3/1
f 22/3/1 2/3/1 21/3/1
f 27/3/1 24/3/1 23/3/1
f 28/3/1 24/3/1 27/3/1
f 29/3/1 26/3/1 25/3/1
f 30/3/1 26/3/1 29/3/1
f 31/3/2 32/3/2 35/3/2
f 35/3/2 32/3/2 36/3/2
f 33/3/2 34/3/2 37/3/2
f 37/3/2 34/3/2 38/3/2
f 39/3/2 40/3/2 41/3/2
f 41/3/2 40/3/2 42/3/2
f 42/3/2 40/3/2 43/3/2
f 43/3/2 40/3/2 44/3/2
f 44/3/2 40/3/2 45/3/2
f 45/3/2 40/3/2 46/3/2
f 39/3/2 41/3/2 47/3/2
f 41/1/2 42/1/2 47/1/2
f 42/3/2 43/3/2 48/3/2
f 47/1/2 42/1/2 48/1/2
f 43/4/2 44/4/2 49/4/2
f 48/3/2 43/3/2 49/3/2
f 44/3/2 45/3/2 50/3/2
f 49/4/2 44/4/2 50/4/2
f 45/1/2 46/1/2 51/1/2
f 50/3/2 45/3/2 51/3/2
f 46/3/2 40/3/2 52/3/2
f 51/1/2 46/1/2 52/1/2
f 39/3/2 47/3/2 53/3/2
f 53/3/2 47/3/2 54/3/2
f 48/3/2 49/3/2 55/3/2
f 55/3/2 49/3/2 56/3/2
f 50/3/2 51/3/2 57/3/2
f 57/3/2 51/3/2 58/3/2
f 52/3/2 40/3/2 59/3/2
f 59/3/2 40/3/2 60/3/2
f 63/3/3 62/3/3 61/3/3
f 64/3/3 62/3/3 63/3/3
f 67/3/3 66/3/3 65/3/3
f 68/3/3 66/3/3 67/3/3
f 71/3/3 70/3/3 69/3/3
f 72/3/3 70/3/3 71/3/3
f 75/3/3 74/3/3 73/3/3
f 76/3/3 74/3/3 75/3/3
f 77/3/3 74/3/3 76/3/3
f 78/3/3 74/3/3 77/3/3
f 79/3/3 74/3/3 78/3/3
f 80/3/3 74/3/3 79/3/3
f 83/3/3 82/3/3 81/3/3
f 84/3/3 82/3/3 83/3/3
f 87/3/3 86/3/3 85/3/3
f 88/3/3 86/3/3 87/3/3
f 89/3/4 90/3/4 91/3/4
f 91/3/4 90/3/4 92/3/4
f 93/3/4 94/3/4 95/3/4
f 95/3/4 94/3/4 96/3/4
f 97/3/4 98/3/4 99/3/4
f 99/3/4 98/3/4 100/3/4
f 100/3/4 98/3/4 101/3/4
f 101/3/4 98/3/4 102/3/4
f 102/3/4 98/3/4 103/3/4
f 103/3/4 98/3/4 104/3/4
f 105/3/4 106/3/4 107/3/4
f 107/3/4 106/3/4 108/3/4
f 109/3/4 110/3/4 111/3/4
f 111/3/4 110/3/4 112/3/4
f 113/3/4 114/3/4 115/3/4
f 115/3/4 114/3/4 116/3/4
f 119/3/5 118/3/5 117/3/5
f 120/3/5 118/3/5 119/3/5
f 121/1/6 122/1/6 125/1/6
f 125/1/6 122/1/6 126/1/6
f 123/1/6 124/1/6 127/1/6
f 127/1/6 124/1/6 128/1/6
f 129/4/6 130/4/6 135/4/6
f 135/4/6 130/4/6 136/4/6
f 136/4/6 130/4/6 137/4/6
f 137/4/6 130/4/6 138/4/6
f 138/4/6 130/4/6 139/4/6
f 139/4/6 130/4/6 140/4/6
f 140/4/6 130/4/6 141/4/6
f 141/4/6 130/4/6 142/4/6
f 133/4/6 134/4/6 143/4/6
f 143/4/6 134/4/6 144/4/6
f 144/4/6 134/4/6 145/4/6
f 145/4/6 134/4/6 146/4/6
f 146/4/6 134/4/6 147/4/6
f 147/4/6 134/4/6 148/4/6
f 148/4/6 134/4/6 149/4/6
f 149/4/6 134/4/6 150/4/6
f 129/4/6 135/4/6 151/4/6
f 135/2/6 136/2/6 151/2/6
f 136/4/6 137/4/6 152/4/6
f 151/2/6 136/2/6 152/2/6
f 137/2/6 138/2/6 153/2/6
f 152/4/6 137/4/6 153/4/6
f 138/4/6 139/4/6 154/4/6
f 153/2/6 138/2/6 154/2/6
f 139/2/6 140/2/6 155/2/6
f 154/4/6 139/4/6 155/4/6
f 140/4/6 141/4/6 156/4/6
f 155/2/6 140/2/6 156/2/6
f 141/2/6 142/2/6 157/2/6
f 156/4/6 141/4/6 157/4/6
f 142/4/6 130/4/6 158/4/6
f 157/2/6 142/2/6 158/2/6
f 130/2/6 131/2/6 159/2/6
f 131/4/6 132/4/6 159/4/6
f 132/2/6 133/2/6 160/2/6
f 159/4/6 132/4/6 160/4/6
f 133/4/6 143/4/6 161/4/6
f 143/2/6 144/2/6 161/2/6
f 144/4/6 145/4/6 162/4/6
f 161/2/6 144/2/6 162/2/6
f 145/2/6 146/2/6 163/2/6
f 162/4/6 145/4/6 163/4/6
f 146/4/6 147/4/6 164/4/6
f 163/2/6 146/2/6 164/2/6
f 147/2/6 148/2/6 165/2/6
f 164/4/6 147/4/6 165/4/6
f 148/4/6 149/4/6 166/4/6
f 165/2/6 148/2/6 166/2/6
f 149/2/6 150/2/6 167/2/6
f 166/4/6 149/4/6 167/4/6
f 150/4/6 134/4/6 168/4/6
f 167/2/6 150/2/6 168/2/6
f 130/2/6 159/2/6 169/2/6
f 159/2/6 160/2/6 169/2/6
f 160/2/6 133/2/6 170/2/6
f 169/2/6 160/2/6 170/2/6
f 130/2/6 169/2/6 171/2/6
f 169/4/6 170/4/6 171/4/6
f 170/2/6 133/2/6 172/2/6
f 171/4/6 170/4/6 172/4/6
f 130/2/6 171/2/6 173/2/6
f 171/2/6 172/2/6 173/2/6
f 172/2/6 133/2/6 174/2/6
f 173/2/6 172/2/6 174/2/6
f 130/2/6 173/2/6 175/2/6
f 173/4/6 174/4/6 175/4/6
f 174/2/6 133/2/6 176/2/6
f 175/4/6 174/4/6 176/4/6
f 130/2/6 175/2/6 177/2/6
f 175/2/6 176/2/6 177/2/6
f 176/2/6 133/2/6 178/2/6
f 177/2/6 176/2/6 178/2/6
f 130/2/6 177/2/6 179/2/6
f 177/4/6 178/4/6 179/4/6
f 178/2/6 133/2/6 180/2/6
f 179/4/6 178/4/6 180/4/6
f 130/2/6 179/2/6 181/2/6
f 179/2/6 180/2/6 181/2/6
f 180/2/6 133/2/6 182/2/6
f 181/2/6 180/2/6 182/2/6
f 130/2/6 181/2/6 183/2/6
f 181/4/6 182/4/6 183/4/6
f 182/2/6 133/2/6 184/2/6
f 183/4/6 182/4/6 184/4/6
f 130/2/6 183/2/6 185/2/6
f 183/2/6 184/2/6 185/2/6
f 184/2/6 133/2/6 186/2/6
f 185/2/6 184/2/6 186/2/6
f 130/2/6 185/2/6 187/2/6
f 185/4/6 186/4/6 187/4/6
f 186/2/6 133/2/6 188/2/6
f 187/4/6 186/4/6 188/4/6
f 156/4/6 157/4/6 189/4/6
f 157/4/6 158/4/6 189/4/6
f 129/4/6 151/4/6 189/4/6
f 151/4/6 152/4/6 189/4/6
f 152/4/6 153/4/6 189/4/6
f 153/4/6 154/4/6 189/4/6
f 154/4/6 155/4/6 189/4/6
f 155/4/6 156/4/6 189/4/6
f 189/4/6 158/4/6 190/4/6
f 190/4/6 158/4/6 191/4/6
f 191/4/6 158/4/6 192/4/6
f 192/4/6 158/4/6 193/4/6
f 193/4/6 158/4/6 194/4/6
f 194/4/6 158/4/6 195/4/6
f 158/4/6 130/4/6 196/4/6
f 195/4/6 158/4/6 196/4/6
f 187/2/6 188/2/6 197/2/6
f 130/2/6 187/2/6 197/2/6
f 188/2/6 133/2/6 198/2/6
f 197/2/6 188/2/6 198/2/6
f 166/4/6 167/4/6 199/4/6
f 165/4/6 166/4/6 199/4/6
f 164/4/6 165/4/6 199/4/6
f 163/4/6 164/4/6 199/4/6
f 162/4/6 163/4/6 199/4/6
f 161/4/6 162/4/6 199/4/6
f 133/4/6 161/4/6 199/4/6
f 167/4/6 168/4/6 199/4/6
f 199/4/6 168/4/6 200/4/6
f 200/4/6 168/4/6 201/4/6
f 201/4/6 168/4/6 202/4/6
f 202/4/6 168/4/6 203/4/6
f 203/4/6 168/4/6 204/4/6
f 204/4/6 168/4/6 205/4/6
f 168/4/6 134/4/6 206/4/6
f 205/4/6 168/4/6 206/4/6
f 189/2/6 190/2/6 207/2/6
f 129/4/6 189/4/6 207/4/6
f 190/4/6 191/4/6 208/4/6
f 207/2/6 190/2/6 208/2/6
f 191/2/6 192/2/6 209/2/6
f 208/4/6 191/4/6 209/4/6
f 192/4/6 193/4/6 210/4/6
f 209/2/6 192/2/6 210/2/6
f 193/2/6 194/2/6 211/2/6
f 210/4/6 193/4/6 211/4/6
f 194/4/6 195/4/6 212/4/6
f 211/2/6 194/2/6 212/2/6
f 195/2/6 196/2/6 213/2/6
f 212/4/6 195/4/6 213/4/6
f 196/4/6 130/4/6 214/4/6
f 213/2/6 196/2/6 214/2/6
f 133/4/6 199/4/6 215/4/6
f 199/2/6 200/2/6 215/2/6
f 200/4/6 201/4/6 216/4/6
f 215/2/6 200/2/6 216/2/6
f 201/2/6 202/2/6 217/2/6
f 216/4/6 201/4/6 217/4/6
f 202/4/6 203/4/6 218/4/6
f 217/2/6 202/2/6 218/2/6
f 203/2/6 204/2/6 219/2/6
f 218/4/6 203/4/6 219/4/6
f 204/4/6 205/4/6 220/4/6
f 219/2/6 204/2/6 220/2/6
f 205/2/6 206/2/6 221/2/6
f 220/4/6 205/4/6 221/4/6
f 206/4/6 134/4/6 222/4/6
f 221/2/6 206/2/6 222/2/6
f 210/4/6 211/4/6 223/4/6
f 212/4/6 213/4/6 223/4/6
f 209/4/6 210/4/6 223/4/6
f 208/4/6 209/4/6 223/4/6
f 207/4/6 208/4/6 223/4/6
f 129/4/6 207/4/6 223/4/6
f 211/4/6 212/4/6 223/4/6
f 213/4/6 214/4/6 223/4/6
f 130/2/6 197/2/6 224/2/6
f 223/4/6 214/4/6 224/4/6
f 214/4/6 130/4/6 224/4/6
f 197/4/6 198/4/6 225/4/6
f 224/2/6 197/2/6 225/2/6
f 198/2/6 133/2/6 226/2/6
f 225/4/6 198/4/6 226/4/6
f 221/4/6 222/4/6 227/4/6
f 226/2/6 133/2/6 227/2/6
f 218/4/6 219/4/6 227/4/6
f 219/4/6 220/4/6 227/4/6
f 220/4/6 221/4/6 227/4/6
f 133/4/6 215/4/6 227/4/6
f 215/4/6 216/4/6 227/4/6
f 216/4/6 217/4/6 227/4/6
f 217/4/6 218/4/6 227/4/6
f 222/4/6 134/4/6 228/4/6
f 227/4/6 222/4/6 228/4/6
f 229/1/6 230/1/6 233/1/6
f 233/1/6 230/1/6 234/1/6
f 231/1/6 232/1/6 235/1/6
f 235/1/6 232/1/6 236/1/6
f 237/3/6 238/3/6 239/3/6
f 239/3/6 238/3/6 240/3/6
f 240/3/6 238/3/6 241/3/6
f 241/3/6 238/3/6 242/3/6
f 240/3/6 241/3/6 244/3/6
f 244/3/6 241/3/6 245/3/6
f 243/3/6 244/3/6 247/3/6
f 245/3/6 246/3/6 247/3/6
f 244/3/6 245/3/6 247/3/6
f 247/3/6 246/3/6 248/3/6
f 249/3/6 250/3/6 251/3/6
f 251/3/6 250/3/6 252/3/6
f 252/3/6 250/3/6 253/3/6
f 253/3/6 250/3/6 254/3/6
f 252/3/6 253/3/6 256/3/6
f 256/3/6 253/3/6 257/3/6
f 255/3/6 256/3/6 259/3/6
f 257/3/6 258/3/6 259/3/6
f 256/3/6 257/3/6 259/3/6
f 259/3/6 258/3/6 260/3/6
