# Blender 3.5.1
# www.blender.org
mtllib StarNormal.mtl
o Circle
v 0.000000 0.282394 0.027477
v -0.108130 0.148828 0.027477
v -0.268573 0.087265 0.027477
v -0.174957 -0.056847 0.027477
v -0.165987 -0.228462 0.027477
v 0.000000 -0.183961 0.027477
v 0.165987 -0.228462 0.027477
v 0.174957 -0.056847 0.027477
v 0.268573 0.087265 0.027477
v 0.108130 0.148828 0.027477
v 0.000000 0.282394 -0.036142
v -0.108130 0.148828 -0.036142
v -0.268573 0.087265 -0.036142
v -0.174957 -0.056847 -0.036142
v -0.165987 -0.228462 -0.036142
v 0.000000 -0.183961 -0.036142
v 0.165987 -0.228462 -0.036142
v 0.174957 -0.056847 -0.036142
v 0.268573 0.087265 -0.036142
v 0.108130 0.148828 -0.036142
v -0.292059 0.094896 -0.004332
v -0.190257 -0.061818 -0.004332
v 0.117585 0.161842 -0.004332
v 0.000000 0.307089 -0.004332
v 0.180502 -0.248440 -0.004332
v 0.190257 -0.061818 -0.004332
v -0.180502 -0.248440 -0.004332
v -0.117585 0.161842 -0.004332
v 0.292059 0.094896 -0.004332
v 0.000000 -0.200048 -0.004332
vn -0.7535 -0.4895 -0.4389
vn 0.6984 0.5654 -0.4389
vn 0.8973 -0.0469 -0.4389
vn -0.8973 -0.0469 -0.4389
vn -0.6984 0.5654 -0.4389
vn 0.7535 -0.4895 -0.4389
vn 0.2327 -0.8679 -0.4389
vn -0.3219 0.8389 -0.4389
vn 0.3219 0.8389 -0.4389
vn -0.2327 -0.8679 -0.4389
vn -0.2327 -0.8679 0.4389
vn 0.3219 0.8389 0.4389
vn -0.3219 0.8389 0.4389
vn 0.2327 -0.8679 0.4389
vn 0.7535 -0.4895 0.4389
vn -0.6984 0.5654 0.4389
vn -0.8973 -0.0469 0.4389
vn 0.8973 -0.0469 0.4389
vn 0.6984 0.5654 0.4389
vn -0.7535 -0.4895 0.4389
vn -0.0000 -0.0000 1.0000
vn -0.0000 -0.0000 -1.0000
vt 0.000000 0.000000
vt 0.000000 0.000000
vt 0.000000 0.000000
vt 0.000000 0.000000
vt 0.000000 0.000000
vt 0.000000 0.000000
vt 0.000000 0.000000
vt 0.000000 0.000000
vt 0.000000 0.000000
vt 0.000000 0.000000
vt 0.000000 0.000000
vt 0.000000 0.000000
vt 0.000000 0.000000
vt 0.000000 0.000000
vt 0.000000 0.000000
vt 0.000000 0.000000
vt 0.000000 0.000000
vt 0.000000 0.000000
vt 0.000000 0.000000
vt 0.000000 0.000000
vt 0.000000 0.000000
vt 0.000000 0.000000
vt 0.000000 0.000000
vt 0.000000 0.000000
vt 0.000000 0.000000
vt 0.000000 0.000000
vt 0.000000 0.000000
vt 0.000000 0.000000
vt 0.000000 0.000000
vt 0.000000 0.000000
s 0
f 22/22/1 21/21/1 13/13/1 14/14/1
f 24/24/2 23/23/2 20/20/2 11/11/2
f 26/26/3 25/25/3 17/17/3 18/18/3
f 27/27/4 22/22/4 14/14/4 15/15/4
f 28/28/5 24/24/5 11/11/5 12/12/5
f 29/29/6 26/26/6 18/18/6 19/19/6
f 30/30/7 27/27/7 15/15/7 16/16/7
f 21/21/8 28/28/8 12/12/8 13/13/8
f 23/23/9 29/29/9 19/19/9 20/20/9
f 25/25/10 30/30/10 16/16/10 17/17/10
f 7/7/11 6/6/11 30/30/11 25/25/11
f 10/10/12 9/9/12 29/29/12 23/23/12
f 3/3/13 2/2/13 28/28/13 21/21/13
f 6/6/14 5/5/14 27/27/14 30/30/14
f 9/9/15 8/8/15 26/26/15 29/29/15
f 2/2/16 1/1/16 24/24/16 28/28/16
f 5/5/17 4/4/17 22/22/17 27/27/17
f 8/8/18 7/7/18 25/25/18 26/26/18
f 1/1/19 10/10/19 23/23/19 24/24/19
f 4/4/20 3/3/20 21/21/20 22/22/20
f 2/2/21 3/3/21 4/4/21 5/5/21 6/6/21 7/7/21 8/8/21 9/9/21 10/10/21 1/1/21
f 12/12/22 11/11/22 20/20/22 19/19/22 18/18/22 17/17/22 16/16/22 15/15/22 14/14/22 13/13/22
