# MagicaVoxel @ Ephtracy

# group
o 

# material
mtllib RoadT1.vox.mtl
usemtl palette

# normals
vn -1 0 0
vn 1 0 0
vn 0 0 1
vn 0 0 -1
vn 0 -1 0
vn 0 1 0

# texcoords
vt 0.908203 0.5
vt 0.966797 0.5
vt 0.974609 0.5
vt 0.982422 0.5

# verts
v -2 0 2
v -2 0 1.3
v -2 0 -1.3
v -2 0 -2
v -2 0.1 1.9
v -2 0.1 1.4
v -2 0.1 -1.4
v -2 0.1 -1.9
v -2 0.3 1.9
v -2 0.3 1.4
v -2 0.3 1.3
v -2 0.3 -1.3
v -2 0.3 -1.4
v -2 0.3 -1.9
v -2 0.4 2
v -2 0.4 1.9
v -2 0.4 1.4
v -2 0.4 1.3
v -2 0.4 -1.3
v -2 0.4 -1.4
v -2 0.4 -1.9
v -2 0.4 -2
v -1.4 0.3 2
v -1.4 0.3 1.4
v -1.4 0.4 2
v -1.4 0.4 1.4
v -0.2 0.3 -1.4
v -0.2 0.3 -1.9
v -0.2 0.4 -1.4
v -0.2 0.4 -1.9
v 1.3 0.3 2
v 1.3 0.3 1.3
v 1.3 0.4 2
v 1.3 0.4 1.3
v 1.9 0.3 2
v 1.9 0.3 1.9
v 1.9 0.4 2
v 1.9 0.4 1.9
v -1.9 0.3 2
v -1.9 0.3 1.9
v -1.9 0.4 2
v -1.9 0.4 1.9
v -1.3 0.3 2
v -1.3 0.3 1.3
v -1.3 0.4 2
v -1.3 0.4 1.3
v 0.2 0.3 -1.4
v 0.2 0.3 -1.9
v 0.2 0.4 -1.4
v 0.2 0.4 -1.9
v 1.4 0.3 2
v 1.4 0.3 1.4
v 1.4 0.4 2
v 1.4 0.4 1.4
v 2 0 2
v 2 0 1.3
v 2 0 -1.3
v 2 0 -2
v 2 0.1 1.9
v 2 0.1 1.4
v 2 0.1 -1.4
v 2 0.1 -1.9
v 2 0.3 1.9
v 2 0.3 1.4
v 2 0.3 1.3
v 2 0.3 -1.3
v 2 0.3 -1.4
v 2 0.3 -1.9
v 2 0.4 2
v 2 0.4 1.9
v 2 0.4 1.4
v 2 0.4 1.3
v 2 0.4 -1.3
v 2 0.4 -1.4
v 2 0.4 -1.9
v 2 0.4 -2
v -2 0 2
v -2 0.4 2
v -1.9 0.1 2
v -1.9 0.3 2
v -1.9 0.4 2
v -1.4 0.1 2
v -1.4 0.3 2
v -1.4 0.4 2
v -1.3 0 2
v -1.3 0.3 2
v -1.3 0.4 2
v 1.3 0 2
v 1.3 0.3 2
v 1.3 0.4 2
v 1.4 0.1 2
v 1.4 0.3 2
v 1.4 0.4 2
v 1.9 0.1 2
v 1.9 0.3 2
v 1.9 0.4 2
v 2 0 2
v 2 0.4 2
v -2 0.3 1.4
v -2 0.4 1.4
v -1.4 0.3 1.4
v -1.4 0.4 1.4
v 1.4 0.3 1.4
v 1.4 0.4 1.4
v 2 0.3 1.4
v 2 0.4 1.4
v -2 0.3 -1.3
v -2 0.4 -1.3
v 2 0.3 -1.3
v 2 0.4 -1.3
v -2 0.3 -1.9
v -2 0.4 -1.9
v -0.2 0.3 -1.9
v -0.2 0.4 -1.9
v 0.2 0.3 -1.9
v 0.2 0.4 -1.9
v 2 0.3 -1.9
v 2 0.4 -1.9
v -2 0.3 1.9
v -2 0.4 1.9
v -1.9 0.3 1.9
v -1.9 0.4 1.9
v 1.9 0.3 1.9
v 1.9 0.4 1.9
v 2 0.3 1.9
v 2 0.4 1.9
v -2 0.3 1.3
v -2 0.4 1.3
v -1.3 0.3 1.3
v -1.3 0.4 1.3
v 1.3 0.3 1.3
v 1.3 0.4 1.3
v 2 0.3 1.3
v 2 0.4 1.3
v -2 0.3 -1.4
v -2 0.4 -1.4
v -0.2 0.3 -1.4
v -0.2 0.4 -1.4
v 0.2 0.3 -1.4
v 0.2 0.4 -1.4
v 2 0.3 -1.4
v 2 0.4 -1.4
v -2 0 -2
v -2 0.4 -2
v 2 0 -2
v 2 0.4 -2
v -2 0 2
v -1.3 0 2
v 1.3 0 2
v 2 0 2
v -2 0 1.3
v -1.3 0 1.3
v 1.3 0 1.3
v 2 0 1.3
v -2 0 -1.3
v 2 0 -1.3
v -2 0 -2
v 2 0 -2
v -1.9 0.3 2
v -1.4 0.3 2
v -1.3 0.3 2
v 1.3 0.3 2
v 1.4 0.3 2
v 1.9 0.3 2
v -2 0.3 1.9
v -1.9 0.3 1.9
v -1.1 0.3 1.9
v -1 0.3 1.9
v 1 0.3 1.9
v 1.1 0.3 1.9
v 1.9 0.3 1.9
v 2 0.3 1.9
v -1.1 0.3 1.7
v -1 0.3 1.7
v 1 0.3 1.7
v 1.1 0.3 1.7
v -1.1 0.3 1.5
v -1 0.3 1.5
v 1 0.3 1.5
v 1.1 0.3 1.5
v -2 0.3 1.4
v -1.4 0.3 1.4
v 1.4 0.3 1.4
v 2 0.3 1.4
v -2 0.3 1.3
v -1.3 0.3 1.3
v -1.1 0.3 1.3
v -1 0.3 1.3
v 1 0.3 1.3
v 1.1 0.3 1.3
v 1.3 0.3 1.3
v 2 0.3 1.3
v -1.9 0.3 1.1
v -1.7 0.3 1.1
v -1.5 0.3 1.1
v -1.3 0.3 1.1
v -1.1 0.3 1.1
v -1 0.3 1.1
v 1 0.3 1.1
v 1.1 0.3 1.1
v 1.3 0.3 1.1
v 1.5 0.3 1.1
v 1.7 0.3 1.1
v 1.9 0.3 1.1
v -1.9 0.3 1
v -1.7 0.3 1
v -1.5 0.3 1
v -1.3 0.3 1
v -1.1 0.3 1
v -1 0.3 1
v 1 0.3 1
v 1.1 0.3 1
v 1.3 0.3 1
v 1.5 0.3 1
v 1.7 0.3 1
v 1.9 0.3 1
v -1.9 0.3 -1
v -1.7 0.3 -1
v -1.5 0.3 -1
v -1.3 0.3 -1
v -1.1 0.3 -1
v -0.9 0.3 -1
v -0.7 0.3 -1
v -0.5 0.3 -1
v -0.3 0.3 -1
v -0.0999999 0.3 -1
v 0.1 0.3 -1
v 0.3 0.3 -1
v 0.5 0.3 -1
v 0.7 0.3 -1
v 0.9 0.3 -1
v 1.1 0.3 -1
v 1.3 0.3 -1
v 1.5 0.3 -1
v 1.7 0.3 -1
v 1.9 0.3 -1
v -1.9 0.3 -1.1
v -1.7 0.3 -1.1
v -1.5 0.3 -1.1
v -1.3 0.3 -1.1
v -1.1 0.3 -1.1
v -0.9 0.3 -1.1
v -0.7 0.3 -1.1
v -0.5 0.3 -1.1
v -0.3 0.3 -1.1
v -0.0999999 0.3 -1.1
v 0.1 0.3 -1.1
v 0.3 0.3 -1.1
v 0.5 0.3 -1.1
v 0.7 0.3 -1.1
v 0.9 0.3 -1.1
v 1.1 0.3 -1.1
v 1.3 0.3 -1.1
v 1.5 0.3 -1.1
v 1.7 0.3 -1.1
v 1.9 0.3 -1.1
v -2 0.3 -1.3
v 2 0.3 -1.3
v -2 0.3 -1.4
v -0.2 0.3 -1.4
v 0.2 0.3 -1.4
v 2 0.3 -1.4
v -2 0.3 -1.9
v -0.2 0.3 -1.9
v 0.2 0.3 -1.9
v 2 0.3 -1.9
v -2 0.4 2
v -1.9 0.4 2
v -1.4 0.4 2
v -1.3 0.4 2
v 1.3 0.4 2
v 1.4 0.4 2
v 1.9 0.4 2
v 2 0.4 2
v -2 0.4 1.9
v -1.9 0.4 1.9
v 1.9 0.4 1.9
v 2 0.4 1.9
v -2 0.4 1.4
v -1.4 0.4 1.4
v 1.4 0.4 1.4
v 2 0.4 1.4
v -2 0.4 1.3
v -1.3 0.4 1.3
v 1.3 0.4 1.3
v 2 0.4 1.3
v -2 0.4 -1.3
v 2 0.4 -1.3
v -2 0.4 -1.4
v -0.2 0.4 -1.4
v 0.2 0.4 -1.4
v 2 0.4 -1.4
v -2 0.4 -1.9
v -0.2 0.4 -1.9
v 0.2 0.4 -1.9
v 2 0.4 -1.9
v -2 0.4 -2
v 2 0.4 -2

# faces
f 5/3/1 2/3/1 1/3/1
f 6/3/1 2/3/1 5/3/1
f 7/3/1 4/3/1 3/3/1
f 8/3/1 4/3/1 7/3/1
f 9/3/1 5/3/1 1/3/1
f 9/1/1 6/1/1 5/1/1
f 10/3/1 2/3/1 6/3/1
f 10/1/1 6/1/1 9/1/1
f 11/4/1 3/4/1 2/4/1
f 11/3/1 2/3/1 10/3/1
f 12/3/1 7/3/1 3/3/1
f 12/4/1 3/4/1 11/4/1
f 13/1/1 8/1/1 7/1/1
f 13/3/1 7/3/1 12/3/1
f 14/3/1 4/3/1 8/3/1
f 14/1/1 8/1/1 13/1/1
f 15/3/1 9/3/1 1/3/1
f 16/3/1 9/3/1 15/3/1
f 17/3/1 11/3/1 10/3/1
f 18/3/1 11/3/1 17/3/1
f 19/3/1 13/3/1 12/3/1
f 20/3/1 13/3/1 19/3/1
f 21/3/1 4/3/1 14/3/1
f 22/3/1 4/3/1 21/3/1
f 25/3/1 24/3/1 23/3/1
f 26/3/1 24/3/1 25/3/1
f 29/3/1 28/3/1 27/3/1
f 30/3/1 28/3/1 29/3/1
f 33/3/1 32/3/1 31/3/1
f 34/3/1 32/3/1 33/3/1
f 37/3/1 36/3/1 35/3/1
f 38/3/1 36/3/1 37/3/1
f 39/3/2 40/3/2 41/3/2
f 41/3/2 40/3/2 42/3/2
f 43/3/2 44/3/2 45/3/2
f 45/3/2 44/3/2 46/3/2
f 47/3/2 48/3/2 49/3/2
f 49/3/2 48/3/2 50/3/2
f 51/3/2 52/3/2 53/3/2
f 53/3/2 52/3/2 54/3/2
f 55/3/2 56/3/2 59/3/2
f 59/3/2 56/3/2 60/3/2
f 57/3/2 58/3/2 61/3/2
f 61/3/2 58/3/2 62/3/2
f 55/3/2 59/3/2 63/3/2
f 59/1/2 60/1/2 63/1/2
f 60/3/2 56/3/2 64/3/2
f 63/1/2 60/1/2 64/1/2
f 56/4/2 57/4/2 65/4/2
f 64/3/2 56/3/2 65/3/2
f 57/3/2 61/3/2 66/3/2
f 65/4/2 57/4/2 66/4/2
f 61/1/2 62/1/2 67/1/2
f 66/3/2 61/3/2 67/3/2
f 62/3/2 58/3/2 68/3/2
f 67/1/2 62/1/2 68/1/2
f 55/3/2 63/3/2 69/3/2
f 69/3/2 63/3/2 70/3/2
f 64/3/2 65/3/2 71/3/2
f 71/3/2 65/3/2 72/3/2
f 66/3/2 67/3/2 73/3/2
f 73/3/2 67/3/2 74/3/2
f 68/3/2 58/3/2 75/3/2
f 75/3/2 58/3/2 76/3/2
f 79/3/3 78/3/3 77/3/3
f 80/3/3 78/3/3 79/3/3
f 81/3/3 78/3/3 80/3/3
f 82/3/3 79/3/3 77/3/3
f 82/1/3 80/1/3 79/1/3
f 83/1/3 80/1/3 82/1/3
f 85/3/3 82/3/3 77/3/3
f 85/3/3 84/3/3 83/3/3
f 85/3/3 83/3/3 82/3/3
f 86/3/3 84/3/3 85/3/3
f 87/3/3 84/3/3 86/3/3
f 88/4/3 86/4/3 85/4/3
f 89/4/3 86/4/3 88/4/3
f 91/3/3 89/3/3 88/3/3
f 91/3/3 90/3/3 89/3/3
f 92/3/3 90/3/3 91/3/3
f 93/3/3 90/3/3 92/3/3
f 94/3/3 91/3/3 88/3/3
f 94/1/3 92/1/3 91/1/3
f 95/1/3 92/1/3 94/1/3
f 97/3/3 94/3/3 88/3/3
f 97/3/3 96/3/3 95/3/3
f 97/3/3 95/3/3 94/3/3
f 98/3/3 96/3/3 97/3/3
f 101/3/3 100/3/3 99/3/3
f 102/3/3 100/3/3 101/3/3
f 105/3/3 104/3/3 103/3/3
f 106/3/3 104/3/3 105/3/3
f 109/3/3 108/3/3 107/3/3
f 110/3/3 108/3/3 109/3/3
f 113/3/3 112/3/3 111/3/3
f 114/3/3 112/3/3 113/3/3
f 117/3/3 116/3/3 115/3/3
f 118/3/3 116/3/3 117/3/3
f 119/3/4 120/3/4 121/3/4
f 121/3/4 120/3/4 122/3/4
f 123/3/4 124/3/4 125/3/4
f 125/3/4 124/3/4 126/3/4
f 127/3/4 128/3/4 129/3/4
f 129/3/4 128/3/4 130/3/4
f 131/3/4 132/3/4 133/3/4
f 133/3/4 132/3/4 134/3/4
f 135/3/4 136/3/4 137/3/4
f 137/3/4 136/3/4 138/3/4
f 139/3/4 140/3/4 141/3/4
f 141/3/4 140/3/4 142/3/4
f 143/3/4 144/3/4 145/3/4
f 145/3/4 144/3/4 146/3/4
f 151/3/5 148/3/5 147/3/5
f 152/4/5 149/4/5 148/4/5
f 152/3/5 148/3/5 151/3/5
f 153/3/5 150/3/5 149/3/5
f 153/4/5 149/4/5 152/4/5
f 154/3/5 150/3/5 153/3/5
f 155/4/5 152/4/5 151/4/5
f 155/4/5 153/4/5 152/4/5
f 155/4/5 154/4/5 153/4/5
f 156/4/5 154/4/5 155/4/5
f 157/3/5 156/3/5 155/3/5
f 158/3/5 156/3/5 157/3/5
f 159/1/6 160/1/6 166/1/6
f 161/4/6 162/4/6 167/4/6
f 167/4/6 162/4/6 168/4/6
f 168/4/6 162/4/6 169/4/6
f 169/4/6 162/4/6 170/4/6
f 163/1/6 164/1/6 171/1/6
f 161/4/6 167/4/6 173/4/6
f 167/2/6 168/2/6 173/2/6
f 168/4/6 169/4/6 174/4/6
f 173/2/6 168/2/6 174/2/6
f 169/2/6 170/2/6 175/2/6
f 174/4/6 169/4/6 175/4/6
f 170/4/6 162/4/6 176/4/6
f 175/2/6 170/2/6 176/2/6
f 174/4/6 175/4/6 177/4/6
f 161/4/6 173/4/6 177/4/6
f 175/4/6 176/4/6 177/4/6
f 173/4/6 174/4/6 177/4/6
f 177/4/6 176/4/6 178/4/6
f 178/4/6 176/4/6 179/4/6
f 176/4/6 162/4/6 180/4/6
f 179/4/6 176/4/6 180/4/6
f 165/1/6 166/1/6 181/1/6
f 166/1/6 160/1/6 182/1/6
f 181/1/6 166/1/6 182/1/6
f 171/1/6 172/1/6 183/1/6
f 163/1/6 171/1/6 183/1/6
f 183/1/6 172/1/6 184/1/6
f 161/4/6 177/4/6 186/4/6
f 177/2/6 178/2/6 187/2/6
f 186/4/6 177/4/6 187/4/6
f 178/4/6 179/4/6 188/4/6
f 187/2/6 178/2/6 188/2/6
f 179/2/6 180/2/6 189/2/6
f 188/4/6 179/4/6 189/4/6
f 180/4/6 162/4/6 190/4/6
f 189/2/6 180/2/6 190/2/6
f 190/4/6 162/4/6 191/4/6
f 186/4/6 187/4/6 193/4/6
f 191/4/6 192/4/6 193/4/6
f 190/4/6 191/4/6 193/4/6
f 189/4/6 190/4/6 193/4/6
f 188/4/6 189/4/6 193/4/6
f 185/4/6 186/4/6 193/4/6
f 187/4/6 188/4/6 193/4/6
f 193/4/6 192/4/6 194/4/6
f 194/4/6 192/4/6 195/4/6
f 195/4/6 192/4/6 196/4/6
f 196/4/6 192/4/6 197/4/6
f 197/4/6 192/4/6 198/4/6
f 198/4/6 192/4/6 199/4/6
f 199/4/6 192/4/6 200/4/6
f 200/4/6 192/4/6 201/4/6
f 201/4/6 192/4/6 202/4/6
f 202/4/6 192/4/6 203/4/6
f 203/4/6 192/4/6 204/4/6
f 185/4/6 193/4/6 205/4/6
f 193/2/6 194/2/6 205/2/6
f 194/4/6 195/4/6 206/4/6
f 205/2/6 194/2/6 206/2/6
f 195/2/6 196/2/6 207/2/6
f 206/4/6 195/4/6 207/4/6
f 196/4/6 197/4/6 208/4/6
f 207/2/6 196/2/6 208/2/6
f 197/2/6 198/2/6 209/2/6
f 208/4/6 197/4/6 209/4/6
f 198/4/6 199/4/6 210/4/6
f 209/2/6 198/2/6 210/2/6
f 199/2/6 200/2/6 211/2/6
f 210/4/6 199/4/6 211/4/6
f 200/4/6 201/4/6 212/4/6
f 211/2/6 200/2/6 212/2/6
f 201/2/6 202/2/6 213/2/6
f 212/4/6 201/4/6 213/4/6
f 202/4/6 203/4/6 214/4/6
f 213/2/6 202/2/6 214/2/6
f 203/2/6 204/2/6 215/2/6
f 214/4/6 203/4/6 215/4/6
f 204/4/6 192/4/6 216/4/6
f 215/2/6 204/2/6 216/2/6
f 214/4/6 215/4/6 217/4/6
f 213/4/6 214/4/6 217/4/6
f 215/4/6 216/4/6 217/4/6
f 212/4/6 213/4/6 217/4/6
f 211/4/6 212/4/6 217/4/6
f 210/4/6 211/4/6 217/4/6
f 209/4/6 210/4/6 217/4/6
f 208/4/6 209/4/6 217/4/6
f 207/4/6 208/4/6 217/4/6
f 206/4/6 207/4/6 217/4/6
f 205/4/6 206/4/6 217/4/6
f 185/4/6 205/4/6 217/4/6
f 217/4/6 216/4/6 218/4/6
f 218/4/6 216/4/6 219/4/6
f 219/4/6 216/4/6 220/4/6
f 220/4/6 216/4/6 221/4/6
f 221/4/6 216/4/6 222/4/6
f 222/4/6 216/4/6 223/4/6
f 223/4/6 216/4/6 224/4/6
f 224/4/6 216/4/6 225/4/6
f 225/4/6 216/4/6 226/4/6
f 226/4/6 216/4/6 227/4/6
f 227/4/6 216/4/6 228/4/6
f 228/4/6 216/4/6 229/4/6
f 229/4/6 216/4/6 230/4/6
f 230/4/6 216/4/6 231/4/6
f 231/4/6 216/4/6 232/4/6
f 232/4/6 216/4/6 233/4/6
f 233/4/6 216/4/6 234/4/6
f 234/4/6 216/4/6 235/4/6
f 216/4/6 192/4/6 236/4/6
f 235/4/6 216/4/6 236/4/6
f 185/4/6 217/4/6 237/4/6
f 217/2/6 218/2/6 237/2/6
f 218/4/6 219/4/6 238/4/6
f 237/2/6 218/2/6 238/2/6
f 219/2/6 220/2/6 239/2/6
f 238/4/6 219/4/6 239/4/6
f 220/4/6 221/4/6 240/4/6
f 239/2/6 220/2/6 240/2/6
f 221/2/6 222/2/6 241/2/6
f 240/4/6 221/4/6 241/4/6
f 222/4/6 223/4/6 242/4/6
f 241/2/6 222/2/6 242/2/6
f 223/2/6 224/2/6 243/2/6
f 242/4/6 223/4/6 243/4/6
f 224/4/6 225/4/6 244/4/6
f 243/2/6 224/2/6 244/2/6
f 225/2/6 226/2/6 245/2/6
f 244/4/6 225/4/6 245/4/6
f 226/4/6 227/4/6 246/4/6
f 245/2/6 226/2/6 246/2/6
f 227/2/6 228/2/6 247/2/6
f 246/4/6 227/4/6 247/4/6
f 228/4/6 229/4/6 248/4/6
f 247/2/6 228/2/6 248/2/6
f 229/2/6 230/2/6 249/2/6
f 248/4/6 229/4/6 249/4/6
f 230/4/6 231/4/6 250/4/6
f 249/2/6 230/2/6 250/2/6
f 231/2/6 232/2/6 251/2/6
f 250/4/6 231/4/6 251/4/6
f 232/4/6 233/4/6 252/4/6
f 251/2/6 232/2/6 252/2/6
f 233/2/6 234/2/6 253/2/6
f 252/4/6 233/4/6 253/4/6
f 234/4/6 235/4/6 254/4/6
f 253/2/6 234/2/6 254/2/6
f 235/2/6 236/2/6 255/2/6
f 254/4/6 235/4/6 255/4/6
f 236/4/6 192/4/6 256/4/6
f 255/2/6 236/2/6 256/2/6
f 252/4/6 253/4/6 257/4/6
f 254/4/6 255/4/6 257/4/6
f 255/4/6 256/4/6 257/4/6
f 251/4/6 252/4/6 257/4/6
f 250/4/6 251/4/6 257/4/6
f 249/4/6 250/4/6 257/4/6
f 248/4/6 249/4/6 257/4/6
f 247/4/6 248/4/6 257/4/6
f 246/4/6 247/4/6 257/4/6
f 245/4/6 246/4/6 257/4/6
f 244/4/6 245/4/6 257/4/6
f 243/4/6 244/4/6 257/4/6
f 242/4/6 243/4/6 257/4/6
f 241/4/6 242/4/6 257/4/6
f 240/4/6 241/4/6 257/4/6
f 239/4/6 240/4/6 257/4/6
f 238/4/6 239/4/6 257/4/6
f 237/4/6 238/4/6 257/4/6
f 185/4/6 237/4/6 257/4/6
f 253/4/6 254/4/6 257/4/6
f 256/4/6 192/4/6 258/4/6
f 257/4/6 256/4/6 258/4/6
f 259/1/6 260/1/6 263/1/6
f 263/1/6 260/1/6 264/1/6
f 261/1/6 262/1/6 265/1/6
f 265/1/6 262/1/6 266/1/6
f 267/3/6 268/3/6 275/3/6
f 275/3/6 268/3/6 276/3/6
f 273/3/6 274/3/6 277/3/6
f 277/3/6 274/3/6 278/3/6
f 269/3/6 270/3/6 280/3/6
f 271/3/6 272/3/6 281/3/6
f 279/3/6 280/3/6 283/3/6
f 280/3/6 270/3/6 284/3/6
f 283/3/6 280/3/6 284/3/6
f 281/3/6 282/3/6 285/3/6
f 271/3/6 281/3/6 285/3/6
f 285/3/6 282/3/6 286/3/6
f 287/3/6 288/3/6 289/3/6
f 289/3/6 288/3/6 290/3/6
f 290/3/6 288/3/6 291/3/6
f 291/3/6 288/3/6 292/3/6
f 290/3/6 291/3/6 294/3/6
f 294/3/6 291/3/6 295/3/6
f 293/3/6 294/3/6 297/3/6
f 295/3/6 296/3/6 297/3/6
f 294/3/6 295/3/6 297/3/6
f 297/3/6 296/3/6 298/3/6
